<?xml version="1.0" encoding="UTF-8" standalone="no"?>
<!-- Created with Inkscape (http://www.inkscape.org/) -->

<svg
   width="886.65533mm"
   height="193.2567mm"
   viewBox="0 0 886.65533 193.2567"
   version="1.1"
   id="svg1"
   xml:space="preserve"
   xmlns="http://www.w3.org/2000/svg"
   xmlns:svg="http://www.w3.org/2000/svg"><defs
     id="defs1" /><g
     id="layer1"
     transform="translate(320.23404,-54.000536)"><path
       style="fill:#000000"
       d="m -47.165346,246.78251 c -9.56817,-1.82016 -14.975995,-7.03712 -17.464842,-16.84845 -1.198998,-4.72659 -1.602984,-8.76346 -1.845747,-18.44378 -0.344218,-13.72594 0.671718,-23.55882 3.077125,-29.78239 2.496831,-6.46012 6.987569,-10.67344 13.511952,-12.67722 2.606395,-0.80049 3.480883,-0.8859 9.229206,-0.90145 5.083988,-0.0138 6.801547,0.1096 8.614846,0.61867 3.403086,0.9554 6.09306,2.45952 8.61088,4.81481 4.187362,3.91707 6.097889,8.98973 6.478783,17.20188 l 0.216803,4.67431 h -7.617512 -7.617513 l -0.181484,-1.49931 c -0.09982,-0.82461 -0.263408,-2.68993 -0.363536,-4.14513 -0.466126,-6.77439 -2.944616,-10.03418 -7.976101,-10.49042 -2.496033,-0.22633 -4.261892,0.3317 -5.989936,1.89288 -3.548241,3.20563 -4.83065,11.9748 -4.48171,30.64615 0.202624,10.84214 0.657373,14.97066 2.067386,18.76912 1.590478,4.28462 5.189915,6.32211 9.564359,5.41398 3.289166,-0.68283 5.011415,-2.38658 6.223939,-6.15708 1.000064,-3.10982 1.16281,-4.1349 1.40526,-8.85118 l 0.217758,-4.23595 7.672917,-0.0951 7.672917,-0.0951 v 2.63464 c 0,3.82219 -0.933969,10.35457 -1.932274,13.51474 -2.196152,6.952 -6.664221,11.43876 -13.356576,13.41246 -3.68059,1.08548 -11.660324,1.40436 -15.7369,0.62887 z m 58.391259,0.14643 c -9.0295171,-1.4145 -14.6782101,-6.26273 -17.4771735,-15.00052 -1.9299759,-6.02499 -2.2957875,-9.83828 -2.2990682,-23.96592 -0.00196,-8.44786 0.1499542,-13.82209 0.4537318,-16.05139 1.5125361,-11.09986 5.4609613,-18.04731 12.1025109,-21.29497 4.4214171,-2.16203 6.351471,-2.51712 13.544769,-2.49196 5.739861,0.0201 6.626648,0.10718 9.229206,0.90649 7.047522,2.16445 11.668564,6.96536 14.21334,14.76655 3.312153,10.15365 3.292257,37.68348 -0.03467,47.97778 -2.537956,7.85303 -7.286987,12.55409 -14.654061,14.50603 -3.16161,0.83768 -11.562772,1.19867 -15.078581,0.64791 z m 10.190162,-11.42616 c 2.755176,-1.16521 4.76876,-4.77569 5.718795,-10.25417 0.882917,-5.09143 0.899733,-29.75123 0.0237,-34.75844 -1.044694,-5.97125 -2.30566,-8.47028 -5.102073,-10.11148 -1.487113,-0.87278 -2.033542,-0.98807 -4.682205,-0.98793 -4.247162,2.2e-4 -6.33805,1.19649 -8.0470491,4.60401 -1.9492833,3.88661 -2.5362848,9.39292 -2.5362848,23.79134 0,14.89614 0.5993903,20.14454 2.7545527,24.11951 1.1222682,2.0699 2.7232322,3.35937 4.9432542,3.98145 1.85188,0.51893 5.235437,0.33122 6.927308,-0.38429 z m 49.77056,11.40203 c -9.10335,-1.32625 -14.65839,-5.99564 -17.614885,-14.8065 -1.289966,-3.84431 -1.918855,-8.28274 -2.382644,-16.81567 -0.650983,-11.97698 0.26243,-25.02106 2.19384,-31.32934 2.437039,-7.95975 7.549922,-13.09126 15.144126,-15.19931 3.247991,-0.9016 13.623517,-0.92001 16.933334,-0.03 10.421564,2.80224 15.612124,10.2173 17.105304,24.43608 0.6318,6.01623 0.71664,21.43536 0.15295,27.79454 -1.45963,16.46642 -7.418715,24.246 -19.904087,25.98477 -2.941292,0.40962 -8.696648,0.39253 -11.627938,-0.0345 z M 81.724704,235.1894 c 2.666986,-1.48578 4.316324,-4.51749 5.137315,-9.44309 1.116233,-6.69693 1.11541,-29.19709 -0.0013,-35.92039 -1.038231,-6.25074 -3.348251,-9.47221 -7.397521,-10.3163 -2.694374,-0.56166 -5.547924,-0.14306 -7.510857,1.10179 -1.90612,1.20883 -3.499735,4.14916 -4.307855,7.94831 -1.335321,6.27764 -1.560455,28.31709 -0.369655,36.18732 1.069881,7.07104 3.288595,10.36936 7.602256,11.30144 1.936603,0.41846 5.315304,-0.005 6.847631,-0.85908 z m 255.089876,11.61435 c -3.49604,-1.10565 -5.79252,-3.25417 -6.68287,-6.25231 -1.00857,-3.39622 -0.63014,-5.9439 2.45645,-16.53755 2.81491,-9.66121 3.68782,-12.80913 3.69287,-13.31736 0.008,-0.81054 -1.79081,-0.45325 -3.45983,0.68719 -2.15563,1.47292 -9.01293,8.16296 -12.04196,11.74823 -4.26108,5.04355 -4.75495,6.0347 -5.97662,11.99444 -0.5966,2.91042 -1.25419,6.39678 -1.46131,7.74747 -0.20713,1.3507 -0.54019,2.65294 -0.74015,2.89387 -0.39543,0.47646 -6.84539,0.27123 -8.29702,-0.264 l -0.76045,-0.28038 1.20981,-5.75404 c 0.6654,-3.16472 2.6513,-12.81841 4.41312,-21.45264 1.76182,-8.63424 3.38144,-15.91688 3.59915,-16.18365 0.51418,-0.63004 5.28978,-0.27488 7.34128,0.54597 1.41619,0.56665 1.42483,0.58145 1.20278,2.06215 -0.123,0.82027 -1.0107,4.70247 -1.97264,8.62712 -0.96195,3.92464 -1.749,7.19965 -1.749,7.2778 0,0.0781 0.59341,-0.53306 1.31868,-1.35824 4.72018,-5.37035 7.80215,-8.57487 11.20493,-11.65047 4.18101,-3.77901 6.84029,-5.53989 8.37425,-5.54515 1.35057,-0.005 7.50758,2.01314 8.01742,2.62746 0.33338,0.40171 -0.0211,2.13672 -1.7109,8.37476 -4.39214,16.21366 -5.33216,20.47283 -5.33216,24.15959 0,3.71277 1.71029,5.26572 5.46714,4.96415 6.48415,-0.52048 14.85679,-7.75272 19.60682,-16.93626 l 1.61424,-3.12091 0.85521,0.69268 c 1.39757,1.13197 1.13669,3.29613 -0.87659,7.27195 -4.12261,8.14129 -12.06397,15.06706 -19.4208,16.93713 -2.52119,0.64088 -7.92424,0.66327 -9.89185,0.041 z m -656.46369,-0.85601 c -0.54018,-0.5969 -0.58494,-5.51854 -0.58494,-64.32848 0,-61.24619 0.0247,-63.70446 0.64514,-64.26597 0.5894,-0.5334 3.17441,-0.58384 29.91869,-0.58384 23.45457,0 29.39815,0.0911 29.9004,0.45836 0.41704,0.30495 0.58721,0.80678 0.5084,1.49931 l -0.11846,1.04094 -9.08403,0.0941 -9.08402,0.0941 v 7.57281 7.57281 l 9.08402,0.0942 c 7.79767,0.0808 9.08403,0.16908 9.08403,0.62332 0,0.45423 -1.28636,0.54249 -9.08403,0.62331 l -9.08402,0.0942 v 8.28432 8.28433 h 8.40749 8.4075 l -0.13284,-1.85209 c -0.0731,-1.01864 0.0152,-2.07086 0.19612,-2.33825 0.62313,-0.92093 1.11339,0.001 1.11339,2.09449 v 2.09585 h 4.71931 c 3.51763,0 4.81935,0.12055 5.11221,0.47343 0.21611,0.26038 0.28846,0.57788 0.16079,0.70555 -0.12767,0.12767 -2.42816,0.23213 -5.11221,0.23213 h -4.8801 v 7.75423 7.75423 l 7.67292,0.0951 c 6.54293,0.0811 7.67292,0.17301 7.67292,0.62425 0,0.4488 -1.16838,0.55595 -7.69314,0.70555 l -7.69313,0.17639 -2.03677,4.58611 -2.03677,4.58611 9.20074,0.17639 c 5.0604,0.097 9.16105,0.29545 9.11254,0.44097 -0.0485,0.14552 -0.0881,0.38365 -0.088,0.52917 1.1e-4,0.14552 -4.24253,0.26458 -9.42809,0.26458 h -9.4283 l -2.17034,5.11528 -2.17035,5.11528 5.33663,0.17639 c 4.43009,0.14642 5.33663,0.26628 5.33663,0.70555 0,0.44429 -0.90535,0.54469 -5.64444,0.62594 l -5.64445,0.0968 -0.58483,1.49072 c -0.32165,0.8199 -0.85916,2.24479 -1.19445,3.16642 -0.56806,1.56144 -1.26381,2.10716 -1.72829,1.35562 -0.1088,-0.17605 0.35315,-1.60734 1.02655,-3.18065 l 1.22438,-2.86057 -9.54518,0.0938 -9.54519,0.0939 -3.49139,6.52639 c -1.92027,3.58951 -3.49375,6.64216 -3.49663,6.78366 -0.003,0.14151 3.20944,0.30026 7.13851,0.35278 6.07237,0.0812 7.14375,0.17486 7.14375,0.62467 0,0.44883 -1.1696,0.55594 -7.70411,0.70555 l -7.70411,0.17639 -3.84937,7.40298 c -2.11715,4.07164 -3.84936,7.44508 -3.84936,7.49653 0,0.0514 3.96875,0.0935 8.81945,0.0935 7.60432,0 8.81944,0.0729 8.81944,0.52916 0,0.45675 -1.25005,0.52917 -9.13382,0.52917 h -9.13382 l -2.81403,5.20347 c -5.21868,9.64997 -6.435,11.99204 -6.435,12.39089 0,0.60475 26.43248,0.56138 26.6095,-0.0437 0.071,-0.24254 0.78456,-4.09223 1.58576,-8.55487 0.80121,-4.46263 1.70135,-9.46326 2.00031,-11.1125 1.86753,-10.30214 5.50473,-15.93389 13.95326,-21.60488 2.94528,-1.97699 13.44357,-7.22312 26.9359,-13.4602 3.68652,-1.70417 7.34659,-3.40736 8.13348,-3.78489 2.55307,-1.22487 2.73597,-1.88758 2.90524,-10.52713 l 0.14885,-7.59651 -1.66306,-2.46556 c -2.97094,-4.40455 -5.04071,-9.28678 -6.28285,-14.82017 l -0.47506,-2.11628 -1.65754,-0.2371 c -3.56578,-0.51007 -7.38648,-3.94911 -8.66898,-7.80302 -0.94092,-2.82745 -2.53481,-13.3345 -2.58958,-17.0707 -0.0374,-2.54769 0.0796,-3.12346 1.00032,-4.92374 1.18697,-2.32095 3.30075,-4.13743 5.50538,-4.73107 l 1.4418,-0.38824 -0.24094,-2.00261 c -1.78732,-14.855113 -1.62539,-19.612017 0.9124,-26.802116 2.8884,-8.183458 9.07532,-15.642415 17.90147,-21.582062 2.4651,-1.658908 8.32581,-4.511045 11.18116,-5.441354 8.12732,-2.647976 22.67901,-2.591086 30.83263,0.12054 6.13683,2.040909 12.26577,6.088189 13.41272,8.857165 0.30677,0.740605 1.01473,1.367752 2.24875,1.992054 3.56695,1.804551 7.87476,5.692916 10.40823,9.394795 3.63848,5.31652 5.31585,11.284086 5.32221,18.934749 0.003,4.173706 -1.11404,15.470289 -1.60973,16.272339 -0.0931,0.15058 0.47157,0.46578 1.25476,0.70042 2.92256,0.87562 5.27512,3.93008 5.83954,7.58178 0.27759,1.79596 -1.69687,15.56558 -2.60764,18.18529 -0.95266,2.74024 -1.31406,3.34772 -3.17543,5.33768 -1.87849,2.00825 -3.74361,3.0567 -6.01588,3.38174 l -1.61332,0.23077 -1.14631,4.34845 c -1.32524,5.02722 -3.18379,9.1846 -5.49766,12.29774 l -1.62802,2.19039 0.2551,8.12225 c 0.2525,8.03968 0.26404,8.13101 1.13514,8.98378 0.48402,0.47384 4.92817,2.79706 9.87587,5.1627 25.73701,12.3056 27.60779,13.31479 31.68919,17.09462 5.55106,5.1409 7.87167,10.23145 9.72971,21.34338 0.47044,2.81341 1.36358,7.77435 1.98477,11.02431 l 1.12944,5.90903 h 13.21701 c 7.269359,0 13.161561,-0.11906 13.093785,-0.26459 -0.06778,-0.14552 -2.182995,-4.35239 -4.700488,-9.34861 l -4.577258,-9.08402 h -8.713649 c -8.13231,0 -9.86,-0.18728 -8.67284,-0.94009 0.2457,-0.15581 4.0186,-0.34177 8.38422,-0.41324 4.36563,-0.0715 7.980686,-0.17014 8.033464,-0.21923 0.05278,-0.0491 -1.404624,-3.20479 -3.238674,-7.01266 l -3.33463,-6.92338 -7.87383,-0.095 c -6.72155,-0.0811 -7.87383,-0.17245 -7.87383,-0.62417 0,-0.44812 1.14215,-0.55618 7.45713,-0.70556 l 7.45712,-0.17639 -3.36696,-6.96736 -3.36696,-6.96736 h -9.15499 c -8.57847,0 -9.13935,0.0389 -8.90663,0.61736 1.45582,3.61872 2.04152,5.77603 1.66924,6.1483 -0.30837,0.30838 -0.65501,-0.1437 -1.42314,-1.85608 -0.55851,-1.24506 -1.23293,-2.86536 -1.49871,-3.60067 l -0.48324,-1.33692 -5.8331,0.0293 c -3.2082,0.0161 -6.03153,0.0224 -6.27406,0.014 -0.24254,-0.008 -0.44098,-0.32904 -0.44098,-0.71251 0,-0.66299 0.29138,-0.70197 5.9327,-0.79375 l 5.93269,-0.0965 -1.97426,-4.7625 -1.97426,-4.7625 -8.79221,-0.0945 c -8.56141,-0.092 -9.73078,-0.24713 -9.13472,-1.21156 0.0957,-0.15479 3.97456,-0.28143 8.61977,-0.28143 4.64522,0 8.44585,-0.0749 8.44585,-0.16636 0,-0.0915 -0.73166,-1.95681 -1.62592,-4.14514 -0.89425,-2.18833 -1.7039,-4.17438 -1.79921,-4.41345 -0.12894,-0.32341 -2.30871,-0.45885 -8.51644,-0.52916 -8.07647,-0.0915 -8.34315,-0.11705 -8.34315,-0.80006 0,-0.6831 0.25818,-0.70775 8.11389,-0.77455 l 8.11389,-0.069 v -7.51572 -7.51573 l -4.87462,-0.0983 c -4.39143,-0.0886 -4.8631,-0.1585 -4.75844,-0.70556 0.10101,-0.52801 0.73708,-0.63026 4.87461,-0.78364 l 4.75845,-0.17638 -0.0915,-1.94028 c -0.10917,-2.31588 0.28389,-3.18809 1.12291,-2.49176 0.39081,0.32434 0.55606,1.07768 0.55606,2.53495 v 2.07347 h 7.9375 c 4.36562,0 8.05656,0 8.20208,0 0.14552,0 0.26458,-3.69093 0.26458,-8.20208 v -8.20208 l -8.63186,-0.0946 c -4.77158,-0.0523 -8.78006,-0.24284 -8.96324,-0.42602 -0.20666,-0.20666 -0.17177,-0.52371 0.0927,-0.84237 0.34791,-0.41921 1.95771,-0.51492 8.96324,-0.53291 l 8.53916,-0.0219 v -7.33135 -7.33134 l -8.9606,-0.17639 c -8.55728,-0.16845 -8.9721,-0.20814 -9.21609,-0.88194 -0.14053,-0.38806 -0.11111,-0.98337 0.0654,-1.32292 0.30161,-0.58031 2.05185,-0.61736 29.16568,-0.61736 21.964482,0 28.945788,0.10098 29.268144,0.42333 0.326127,0.32613 0.423333,15.02274 0.423333,64.00397 0,57.33021 -0.0545,63.63514 -0.554365,64.135 -0.498682,0.49869 -5.509311,0.55437 -49.884702,0.55437 h -49.33033 l 0.18831,-2.74739 c 0.10491,-1.53056 0.008,-3.58587 -0.21769,-4.64052 -0.88118,-4.1088 -3.87618,-8.62202 -7.27213,-10.9585 l -1.5274,-1.05088 -0.84783,1.49656 c -0.4663,0.82311 -1.82856,3.19005 -3.02723,5.25986 -1.19868,2.06982 -2.17941,3.86413 -2.17941,3.98735 0,0.12322 2.22278,0.17599 4.93952,0.11725 2.71674,-0.0587 4.89955,-0.0178 4.8507,0.0909 -0.12737,0.28345 -7.30122,6.74557 -8.51488,7.6701 -0.93081,0.70907 -1.42032,0.77527 -5.73264,0.77527 -2.59321,0 -4.71493,-0.12905 -4.71493,-0.28678 0,-0.15772 0.47625,-0.74305 1.05834,-1.30072 0.58208,-0.55767 1.05833,-1.13763 1.05833,-1.28879 0,-0.15116 -1.64406,-0.3199 -3.65347,-0.37497 l -3.65347,-0.10013 8.19875,-8.81945 c 5.2653,-5.66391 8.08082,-8.94566 7.86916,-9.17222 -0.18666,-0.19979 -2.27247,-0.35107 -4.80986,-0.34884 -4.13675,0.004 -4.6649,0.0817 -6.88816,1.01832 -5.05808,2.13084 -8.91488,6.12506 -10.6881,11.06894 -0.71457,1.99226 -0.83897,2.93833 -0.77583,5.90047 l 0.0752,3.52778 -49.75494,0.0894 c -47.85037,0.086 -49.77733,0.0647 -50.33988,-0.55695 z m 56.21229,-9.64704 c 0,-8.3569 0.0178,-8.40625 3.02809,-8.40625 2.98619,0 2.96913,-0.0478 2.96913,8.31893 v 7.2102 l 16.66875,-0.0916 16.66875,-0.0916 0.2518,-2.7782 c 0.30635,-3.38001 0.66535,-4.55076 2.47166,-8.06031 4.59685,-8.9314 15.48017,-13.71998 25.48549,-11.21343 l 3.14828,0.78872 1.6096,-1.71561 c 0.88529,-0.94359 2.60085,-2.81014 3.81236,-4.14789 1.21152,-1.33774 2.20276,-2.34267 2.20276,-2.23316 0,0.1095 -1.11125,2.18681 -2.46945,4.61624 -1.35819,2.42944 -2.46944,4.57235 -2.46944,4.76204 0,0.18969 0.51593,0.66672 1.14652,1.06007 1.84814,1.15284 5.76546,5.34234 7.13676,7.63264 1.55663,2.59982 2.52201,5.63233 2.84881,8.94884 l 0.24796,2.51644 h 16.00581 16.0058 v -7.20675 c 0,-8.32112 -0.002,-8.31547 2.87062,-8.31547 3.24676,0 3.12661,-0.31229 3.12661,8.1263 v 7.39592 h 10.33915 10.33915 l -0.80184,-4.60744 c -1.70112,-9.77479 -3.72192,-19.22291 -4.54437,-21.24698 -1.92249,-4.73129 -5.06623,-8.52806 -9.51087,-11.48655 -1.35841,-0.90419 -8.80343,-4.6551 -16.5445,-8.33535 l -14.07466,-6.69137 -0.56561,0.86349 c -4.41319,6.73733 -10.84988,11.64397 -18.6562,14.22149 -9.89176,3.2661 -19.97824,3.72755 -29.41011,1.3455 -10.88756,-2.74969 -17.88082,-7.44658 -24.17024,-16.2335 -0.0535,-0.0748 -0.5025,0.1295 -0.99771,0.45397 -0.49521,0.32448 -3.5561,1.83421 -6.80198,3.35496 -20.90599,9.7948 -22.73452,10.7921 -26.80278,14.61851 -3.38021,3.17926 -5.90527,7.96954 -6.95105,13.18684 -1.34312,6.70067 -3.35615,17.35091 -3.56869,18.88073 l -0.23281,1.6757 h 10.09422 10.09423 z m 176.801772,-2.26214 0.05992,-9.14273 -4.855299,-0.0984 c -2.670414,-0.0541 -4.800856,0.0391 -4.734316,0.20712 0.389927,0.98458 9.30092,18.34557 9.3772,18.26929 0.05092,-0.0509 0.119544,-4.20681 0.152498,-9.23532 z m -225.837892,0.6812 c 2.42535,-4.58628 4.46196,-8.5585 4.5258,-8.82716 0.0953,-0.40116 -0.72434,-0.47084 -4.58611,-0.38984 l -4.70219,0.0986 -0.0944,8.73125 c -0.0519,4.80219 0.0275,8.73003 0.17639,8.72853 0.14891,-0.001 2.25512,-3.75513 4.68046,-8.34141 z m 5.66112,-10.97045 c 0.20649,-0.33955 2.01002,-3.75268 4.00785,-7.58473 l 3.63241,-6.96736 h -9.12013 -9.12013 v 7.34954 c 0,4.04225 0.10583,7.45537 0.23518,7.58472 0.12935,0.12935 2.42988,0.23519 5.11229,0.23519 4.26665,0 4.92409,-0.0773 5.25253,-0.61736 z m 220.3755,-7.58473 0.126598,-6.96736 h -8.659382 c -4.76266,0 -8.659386,0.10279 -8.659386,0.22841 0,0.12562 1.49962,3.30492 3.33248,7.0651 l 3.33248,6.83668 5.200306,-0.0977 5.200306,-0.0977 z m -208.20198,-15.35152 3.61452,-6.79667 -9.40166,0.0939 -9.40166,0.0939 -3.28633,6.35 c -1.80749,3.4925 -3.37331,6.55111 -3.47961,6.79691 -0.15378,0.35558 1.70027,0.42767 9.07348,0.35277 l 9.26675,-0.0941 z m 207.477924,6.53208 c -0.930883,-2.18427 -6.044619,-12.88749 -6.320575,-13.22917 -0.267667,-0.33141 -2.53653,-0.44097 -9.132399,-0.44097 -4.82694,0 -8.77625,0.061 -8.77625,0.13551 0,0.0745 1.52517,3.24953 3.38927,7.05556 l 3.38927,6.92004 h 8.819308 c 6.920491,0 8.778846,-0.0949 8.631376,-0.44097 z m -229.413564,-2.82222 c 0.11485,-0.43656 1.38107,-2.97656 2.81381,-5.64445 l 2.605,-4.85069 h -3.12835 -3.12834 v 5.64444 c 0,5.16167 0.29967,6.89653 0.83788,4.8507 z m 230.231565,-5.02709 V 193.675 h -2.967127 -2.967126 l 2.702543,5.81334 c 1.486399,3.19734 2.821606,5.81671 2.967127,5.82083 0.14552,0.004 0.264583,-2.61188 0.264583,-5.81334 z m -109.725585,2.98779 c 10.05572,-1.30488 16.20063,-4.65771 22.5336,-12.29495 l 1.86709,-2.25161 -1.2082,-0.9959 c -0.6645,-0.54774 -1.5801,-1.83639 -2.03465,-2.86366 -0.7197,-1.62649 -0.84499,-2.56278 -0.96983,-7.24764 -0.0789,-2.95892 -0.22726,-5.37986 -0.3298,-5.37986 -0.10253,0 -1.92368,1.67841 -4.04699,3.72979 -4.13981,3.99958 -7.00939,6.06507 -9.95982,7.16896 -5.53491,2.07088 -13.70342,2.53674 -19.42165,1.10765 -6.05592,-1.51348 -8.64649,-3.07589 -14.90486,-8.98935 l -3.2632,-3.08335 v 5.0844 c 0,6.17141 -0.46651,8.08839 -2.48464,10.20989 -1.34582,1.41475 -1.37816,1.50351 -0.84452,2.31794 0.30518,0.46577 1.69434,2.04641 3.08701,3.51253 5.38591,5.66996 10.96119,8.48334 19.46854,9.82416 3.44882,0.54355 8.97304,0.61022 12.51192,0.151 z M -310.06287,191.8751 c 0.92374,-1.47914 4.99827,-9.27452 4.99827,-9.56267 0,-0.16267 -2.73844,-0.25232 -6.08542,-0.19923 l -6.08542,0.0965 -0.0976,5.20348 -0.0976,5.20347 h 3.45235 c 3.12618,0 3.49611,-0.0701 3.91547,-0.74157 z m 22.52424,-4.36325 c 1.4203,-2.71063 2.58236,-5.05483 2.58236,-5.20933 0,-0.15449 -4.14204,-0.23858 -9.20454,-0.18685 l -9.20453,0.0941 -2.60766,4.93889 c -1.43422,2.71639 -2.6103,5.06059 -2.61352,5.20933 -0.003,0.14874 4.1502,0.22812 9.22984,0.17639 l 9.2357,-0.0941 z m 19.55839,-0.0105 c 1.13597,-2.71639 2.06733,-5.05795 2.06969,-5.20347 0.002,-0.14552 -3.87143,-0.26459 -8.60841,-0.26459 h -8.6127 l -2.37656,4.49792 c -1.30711,2.47386 -2.61076,4.85774 -2.89699,5.29751 l -0.52042,0.7996 9.43999,-0.094 9.44,-0.094 z m 154.1212,4.6257 c 0,-0.0752 -1.04911,-2.29774 -2.33136,-4.93889 l -2.33135,-4.80209 h -8.6459 c -8.07319,0 -8.63301,0.0409 -8.45117,0.61736 0.18115,0.57434 2.64133,6.6811 3.41089,8.46667 0.34198,0.79348 0.34518,0.79375 9.34549,0.79375 4.95187,0 9.0034,-0.0616 9.0034,-0.1368 z m 19.402776,-0.0494 c 0,-0.10241 -1.125111,-2.32491 -2.500246,-4.93889 l -2.500245,-4.75268 h -8.818045 c -4.84992,0 -8.75754,0.11906 -8.68359,0.26459 0.0739,0.14552 1.14554,2.36802 2.38131,4.93888 l 2.24686,4.67431 h 8.93698 c 4.915336,0 8.936976,-0.0838 8.936976,-0.18621 z m 7.9375,-4.75268 v -4.7625 l -5.55625,-0.0971 c -3.055938,-0.0534 -5.55625,-0.0153 -5.55625,0.0849 0,0.10011 1.071545,2.33207 2.381212,4.95992 l 2.381212,4.7779 3.175038,-0.10026 3.175038,-0.10027 z m -32.984726,-6.3451 c 0,-0.20175 -0.94115,-2.34914 -2.09145,-4.77197 l -2.09146,-4.40515 h -8.31549 c -4.80356,0 -8.31549,0.13655 -8.31549,0.32333 0,0.17783 0.84785,2.20189 1.8841,4.49791 l 1.88409,4.17459 1.73188,0.17639 c 3.64848,0.37159 15.31382,0.37533 15.31382,0.005 z m 19.40278,0.16645 c 0,-0.0998 -1.03301,-2.24291 -2.29558,-4.7625 l -2.29558,-4.58107 h -8.81944 -8.81945 l 2.28827,4.56648 2.28827,4.56649 1.68301,0.13242 c 2.69918,0.21239 15.9705,0.27736 15.9705,0.0782 z m 13.644509,-4.66927 0.06256,-4.6743 h -8.264646 c -4.545555,0 -8.264643,0.0816 -8.264643,0.18143 0,0.0998 1.03493,2.24673 2.29984,4.77099 l 2.299835,4.58958 5.902244,-0.0967 5.902245,-0.0967 z m -217.187059,3.35139 c 0.89147,-1.44892 4.2231,-7.8958 4.2231,-8.17192 0,-0.1136 -4.04812,-0.20655 -8.99583,-0.20655 h -8.99583 v 4.52732 c 0,2.49002 0.10583,4.63314 0.23518,4.7625 0.12935,0.12935 3.06856,0.23518 6.53158,0.23518 h 6.29638 z m 21.95019,-3.40402 c 1.30968,-2.49765 2.38125,-4.63867 2.38125,-4.75782 0,-0.11915 -4.16719,-0.21474 -9.26042,-0.21244 l -9.26042,0.004 -2.29305,4.46311 c -1.26118,2.45471 -2.34597,4.59595 -2.41065,4.75831 -0.0647,0.16236 4.06282,0.2931 9.17222,0.29053 l 9.28982,-0.005 z m 17.9687,1.19916 c 0.76683,-1.74625 1.69522,-3.84969 2.06308,-4.6743 l 0.66884,-1.49931 -8.36594,0.002 -8.36593,0.002 -2.29306,4.49487 c -1.26118,2.47218 -2.34691,4.61742 -2.41272,4.76721 -0.0658,0.14979 3.80234,0.22985 8.59591,0.17792 l 8.71558,-0.0944 z m 69.78477,0.34487 c 4.66703,-1.44461 6.23682,-2.61357 15.12124,-11.26012 6.39565,-6.22441 9.49369,-11.62691 11.02392,-19.22398 0.37385,-1.85606 0.79569,-3.93028 0.93743,-4.60938 l 0.25769,-1.23472 3.42505,-0.1008 c 3.29733,-0.097 3.46564,-0.14138 4.51374,-1.18949 2.10068,-2.10068 2.69582,-3.89364 3.81311,-11.4876 0.57271,-3.89259 0.96028,-7.50123 0.86126,-8.0192 -0.20274,-1.06057 -1.21201,-1.84863 -2.75382,-2.15024 -1.77377,-0.34699 -2.14922,0.3034 -3.16628,5.48483 -1.018,5.18622 -1.28838,5.64444 -3.3306,5.64444 -1.65206,0 -2.77676,-0.78987 -2.6193,-1.8395 1.96694,-13.11127 2.04444,-15.68041 0.58326,-19.33346 -1.37807,-3.44527 -1.85387,-5.76784 -1.86322,-9.095096 -0.0138,-4.904108 -2.32917,-12.92721 -4.75452,-16.474997 -0.66321,-0.970139 -2.2046,-2.737891 -3.42532,-3.928339 l -2.21947,-2.16445 -5.4012,2.419445 c -5.4651,2.448066 -11.04892,4.242787 -15.2363,4.897168 -3.39742,0.530931 -10.79649,0.442299 -14.01297,-0.167858 -2.88872,-0.54798 -7.15358,-1.91964 -10.85787,-3.492093 -5.22633,-2.218556 -9.0886,-0.220327 -11.0969,5.741227 -1.29144,3.833568 -1.83132,6.8002 -2.12704,11.687956 -0.25363,4.192187 -0.44248,5.184957 -1.57703,8.290277 -1.7583,4.81258 -1.84262,6.45673 -0.7552,14.72632 0.50374,3.83086 0.9159,7.17882 0.9159,7.4399 0,0.9677 -3.85727,1.83462 -4.3824,0.98493 -0.10489,-0.16971 -0.66147,-2.569 -1.23683,-5.33175 -0.57537,-2.76274 -1.13321,-5.11026 -1.23965,-5.2167 -0.38578,-0.38578 -2.67797,-0.0876 -3.50817,0.45637 -1.61546,1.0585 -1.73458,2.03175 -0.93114,7.60752 0.84079,5.83491 1.86236,10.41804 2.68868,12.06229 1.02577,2.04114 1.7318,2.35597 5.30312,2.36467 2.14753,0.005 3.33551,0.15471 3.56683,0.44881 0.19076,0.24254 0.62137,1.9491 0.95691,3.79236 0.85671,4.70631 1.76499,7.40363 3.85147,11.43765 2.11154,4.08249 3.94181,6.21929 11.12786,12.99156 5.72584,5.39615 8.62854,7.18851 13.26026,8.188 3.28633,0.70916 11.52313,0.50972 14.2875,-0.34595 z m 69.67361,-15.33792 v -7.58473 l -8.20208,-0.0947 -8.20208,-0.0947 v 7.77412 7.77411 l 8.20208,-0.0947 8.20208,-0.0947 z m 19.57917,0 v -7.76111 h -8.99583 -8.99584 v 7.76111 7.76111 h 8.99584 8.99583 z m 18.168056,0 v -7.58473 l -8.378472,-0.0946 -8.378474,-0.0946 v 7.77388 7.77388 l 8.378474,-0.0946 8.378472,-0.0946 z m -212.342866,3.43958 c -0.055,-2.18281 -0.12378,-5.67799 -0.15287,-7.76707 l -0.0529,-3.79831 -9.08403,0.0941 -9.08403,0.0942 -0.0951,7.67291 -0.0951,7.67292 h 9.33196 9.33197 z m 19.90258,-3.79236 v -7.76111 h -9.34861 -9.34861 v 7.76111 7.76111 h 9.34861 9.34861 z m 18.0665,0.14633 c 0.0559,-4.18812 0.0354,-7.68062 -0.0454,-7.76111 -0.0808,-0.0805 -3.85116,-0.14633 -8.37847,-0.14633 h -8.23148 v 7.76111 7.76111 h 8.27691 8.27691 z m 156.20572,-17.16786 1e-5,-8.37847 h -8.99583 -8.99584 v 8.28326 8.28326 l 7.49653,0.0952 c 4.12309,0.0524 8.17121,0.0952 8.99583,0.0952 h 1.4993 z m 17.286122,8.23896 0.881944,-0.24556 v -8.09774 -8.09774 l -8.378472,-0.0946 -8.378474,-0.0946 v 8.23787 c 0,4.53082 0.10583,8.3437 0.23519,8.47305 0.30973,0.30973 14.500579,0.23649 15.639812,-0.0807 z m -211.748482,-8.6768 0.0946,-8.29341 h -9.17861 -9.1786 v 8.23148 c 0,4.52732 0.066,8.29763 0.1466,8.37847 0.0806,0.0808 4.16844,0.10872 9.08403,0.0619 l 8.93742,-0.0851 z m 20.19014,0.0851 V 136.525 h -9.34861 -9.34861 v 8.23148 c 0,4.52732 0.0661,8.29763 0.14699,8.37847 0.0808,0.0808 4.28772,0.147 9.34861,0.147 h 9.20162 z m 174.27223,-17.09372 v -7.51253 h -8.99583 -8.99584 v 7.34954 c 0,4.04225 0.095,7.4445 0.21103,7.56056 0.11606,0.11607 4.16419,0.18941 8.99583,0.16299 l 8.78481,-0.048 z m 18.168056,-0.003 v -7.3335 l -8.378472,-0.0946 -8.378474,-0.0946 v 7.35593 c 0,4.04575 0.0661,7.42206 0.1468,7.50291 0.0807,0.0808 3.851054,0.11331 8.378474,0.0721 l 8.231672,-0.0748 z m -212.548616,-0.2839 v -7.59068 l -9.08403,0.0941 -9.08403,0.0941 -0.0952,7.49653 -0.0952,7.49653 h 9.17924 9.17924 z m 20.10833,0.006 v -7.58472 h -9.34861 -9.34861 v 7.58472 7.58472 h 9.34861 9.34861 z m 682.83103,118.53498 c -3.57539,-0.50866 -7.71504,-1.61161 -9.4875,-2.52781 -2.71532,-1.40356 -4.97322,-4.44717 -6.08887,-8.20768 -0.73948,-2.49257 -1.26051,-8.04076 -1.01253,-10.78199 0.73129,-8.08402 3.7658,-12.53126 9.89533,-14.50221 0.94878,-0.30508 1.95887,-0.62911 2.24463,-0.72006 0.28577,-0.0909 -0.76317,-0.59575 -2.33098,-1.12179 -6.95296,-2.33288 -8.74655,-5.42554 -8.73215,-15.05678 0.0218,-14.62825 4.86906,-18.55138 23.61794,-19.1154 13.7497,-0.41363 22.60304,1.22488 26.2332,4.85504 2.64965,2.64964 3.99203,7.15703 4.03687,13.55481 0.0324,4.62553 -0.4856,7.05459 -2.16696,10.16125 -1.50307,2.77723 -4.14901,4.72583 -8.72194,6.42328 -0.57722,0.21426 -0.4168,0.33957 0.88195,0.68894 4.22875,1.13753 7.00442,3.1871 8.74905,6.46036 1.79922,3.37569 2.28919,6.16897 2.08679,11.89672 -0.39367,11.14068 -3.70218,15.4329 -13.48167,17.49013 -4.65408,0.97904 -20.2359,1.28384 -25.72316,0.50319 z m 19.33013,-10.75227 c 4.9786,-0.81532 6.23507,-2.61559 6.49268,-9.30271 0.19506,-5.06355 -0.34983,-7.62284 -1.9388,-9.10628 -1.82381,-1.70268 -3.06092,-1.88483 -12.80113,-1.88483 -8.89,0 -9.01659,0.0104 -10.75973,0.88194 -1.27987,0.63994 -1.94511,1.25301 -2.42432,2.23422 -1.3133,2.68901 -1.31853,11.53735 -0.008,14.20139 0.80916,1.64536 2.19129,2.49534 4.74678,2.91916 2.62438,0.43524 14.14329,0.47465 16.69292,0.0571 z m 2.36149,-32.3313 c 2.01517,-0.92917 2.68049,-2.22614 3.18033,-6.19972 0.66034,-5.24956 -0.33164,-9.56918 -2.44896,-10.66409 -1.61388,-0.83457 -5.29055,-1.24676 -11.16372,-1.25156 -8.70959,-0.007 -11.39314,0.69523 -12.52691,3.27859 -1.3624,3.1043 -1.18897,10.5441 0.30575,13.11592 1.28348,2.20838 3.43337,2.61232 13.45588,2.52821 6.89033,-0.0578 7.73239,-0.13174 9.19763,-0.80735 z m 48.48154,43.36429 c -3.03902,-0.27609 -7.53131,-1.22287 -10.03727,-2.11543 -2.01843,-0.71891 -3.05474,-1.3521 -4.46255,-2.72665 -1.58281,-1.5454 -1.95976,-2.19294 -2.75566,-4.73388 -1.82033,-5.8114 -2.67617,-14.24555 -2.67252,-26.33696 0.005,-16.66007 1.6313,-27.11895 4.79065,-30.80994 2.08632,-2.43741 6.14444,-4.09859 12.31512,-5.04118 4.81241,-0.73511 20.52962,-0.63991 24.8053,0.15025 7.29277,1.34774 10.67916,3.18401 12.40539,6.72686 2.41688,4.96029 3.19143,10.67715 3.43271,25.33628 0.30597,18.59009 -0.90213,28.4599 -4.12739,33.71933 -1.57986,2.57628 -6.61478,4.62779 -13.60748,5.54445 -3.73676,0.48985 -15.93443,0.66405 -20.0863,0.28687 z m 16.45496,-11.90391 c 2.84004,-0.60196 5.03656,-1.67341 5.79098,-2.82481 1.75775,-2.68265 2.43011,-10.54966 2.16371,-25.31626 -0.25428,-14.09398 -0.78013,-17.21868 -3.15971,-18.77564 -1.62606,-1.06394 -5.02367,-1.65445 -10.66661,-1.85388 -9.29952,-0.32867 -13.83393,0.8245 -15.32099,3.89637 -1.45409,3.00375 -1.60805,4.96495 -1.61025,20.51243 -0.002,15.80616 0.21309,18.50084 1.69213,21.17575 0.91454,1.65398 2.99472,2.81703 5.8905,3.29341 3.15468,0.51897 12.57883,0.45249 15.22024,-0.10737 z m 44.22281,11.91292 c -2.66385,-0.33243 -6.51299,-1.32586 -8.19273,-2.11447 -3.59331,-1.687 -5.53491,-5.29992 -5.98751,-11.14149 l -0.21183,-2.73403 h 6.2259 6.2259 l 10e-4,2.02847 c 0.002,2.57526 0.81943,3.9728 2.91952,4.98944 2.0952,1.01427 6.49453,1.48946 10.22562,1.10451 5.88991,-0.60768 8.37298,-2.62961 8.37298,-6.81801 0,-1.39546 -0.2125,-2.21785 -0.79375,-3.07189 -1.4286,-2.09904 -2.40053,-2.56722 -5.62914,-2.71155 -15.01031,-0.671 -20.10403,-1.58689 -23.10333,-4.15419 -4.89756,-4.19213 -5.25866,-17.54092 -0.60051,-22.19907 0.56241,-0.56241 1.84254,-1.40133 2.84474,-1.86425 3.23946,-1.49635 6.13926,-1.92891 14.25448,-2.12633 8.22776,-0.20016 12.11981,0.12898 16.12377,1.36351 4.42096,1.36311 6.8414,4.97031 7.18427,10.7068 l 0.12642,2.11506 -5.86772,0.0965 -5.86773,0.0965 -0.25184,-1.67939 c -0.31251,-2.08398 -1.00926,-3.47096 -2.03928,-4.05947 -0.55906,-0.31943 -2.59536,-0.45143 -6.96371,-0.45143 -5.75885,0 -6.27527,0.0543 -7.68676,0.80798 -2.33415,1.24638 -2.95442,2.52008 -2.82405,5.79908 0.17395,4.37484 0.53819,4.5513 10.73589,5.2013 10.10143,0.64386 14.77753,1.45547 17.84013,3.09644 3.31056,1.77382 4.66193,5.24345 4.63732,11.90631 -0.0458,12.39138 -5.64776,16.13501 -23.93725,15.99645 -3.68653,-0.0279 -7.17903,-0.11021 -7.76112,-0.18285 z M 112.5067,246.00371 c -0.12935,-0.12936 -0.23518,-17.4432 -0.23518,-38.47522 v -38.24004 l 16.13958,0.12832 c 17.87579,0.14212 17.74206,0.12655 22.17405,2.58156 2.65841,1.47256 5.98131,4.96835 7.30122,7.68111 1.84642,3.79487 2.46896,6.93117 2.49795,12.58445 0.0298,5.80882 -0.4272,8.11905 -2.40747,12.17083 -2.89989,5.93338 -8.94209,9.71211 -17.18174,10.74528 -1.61078,0.20197 -5.19505,0.36722 -7.96503,0.36722 h -5.03634 v 15.34584 15.34583 h -7.52593 c -4.13926,0 -7.63176,-0.10583 -7.76111,-0.23518 z m 26.80795,-42.79087 c 3.74258,-1.6531 5.44384,-4.56198 5.69065,-9.73013 0.2867,-6.00343 -1.30719,-9.71771 -4.97508,-11.59353 -1.9474,-0.99594 -2.21285,-1.036 -7.04189,-1.06276 l -5.0182,-0.0278 -0.0933,11.28584 c -0.0513,6.20721 -0.008,11.50925 0.0973,11.78232 0.31914,0.83167 9.12701,0.32379 11.34053,-0.65393 z m 29.04854,4.57327 v -38.45278 h 21.34305 21.34306 v 6.35 6.35 h -13.58195 -13.58194 v 8.99584 8.99583 h 12.87639 12.87639 v 6.35 6.35 H 196.7618 183.88541 v 10.40695 10.40694 h 14.11111 14.11111 v 6.35 6.35 h -21.87222 -21.87222 z m 51.74074,38.2176 c -0.12935,-0.12936 -0.23519,-17.44398 -0.23519,-38.47694 v -38.24175 l 17.02153,0.14025 c 18.68605,0.15396 18.51383,0.13592 23.17914,2.4277 4.24639,2.08598 7.11744,5.91622 8.34128,11.12801 0.82406,3.50928 0.52027,11.41435 -0.56008,14.57458 -1.02365,2.99435 -2.09541,4.7801 -3.95592,6.59132 -1.60161,1.55916 -4.42404,3.14482 -6.24648,3.50931 -1.4149,0.28298 -1.39029,0.69348 0.0559,0.93322 2.34066,0.388 5.17872,1.72469 6.60904,3.11277 2.87099,2.7862 3.70841,6.34908 4.22042,17.95615 0.5324,12.06921 0.79336,13.49472 2.80314,15.31232 0.4087,0.36962 0.74309,0.80618 0.74309,0.97014 0,0.16395 -3.70602,0.2981 -8.2356,0.2981 -7.40486,0 -8.28945,-0.0623 -8.76949,-0.61736 -1.32431,-1.53137 -1.57503,-3.57023 -2.02811,-16.49236 -0.31831,-9.07867 -0.57209,-10.45304 -2.36401,-12.80237 -1.64265,-2.15362 -3.0499,-2.52692 -9.55904,-2.53572 l -5.73264,-0.008 v 16.22778 16.22778 h -7.52592 c -4.13926,0 -7.63176,-0.10583 -7.76111,-0.23518 z m 27.81065,-44.15064 c 3.42717,-1.56907 4.98104,-3.83811 5.43641,-7.93851 0.71078,-6.40031 -1.01912,-10.30706 -5.43641,-12.27741 -1.55918,-0.69548 -2.37802,-0.78979 -7.05556,-0.81266 l -5.29167,-0.0259 -0.0933,11.05607 -0.0933,11.05606 5.38494,-0.12505 c 4.70061,-0.10916 5.60908,-0.22768 7.14882,-0.93262 z m 33.74021,4.82062 c 0.096,-2.26026 0.29627,-3.21898 0.83201,-3.98333 1.56134,-2.22759 1.88981,-2.88348 1.91449,-3.82296 0.0142,-0.53966 0.24958,-1.06709 0.52312,-1.17205 0.44883,-0.17224 0.88366,-1.17081 1.1362,-2.60924 0.0511,-0.29104 0.40759,-1.66626 0.79222,-3.05604 1.2871,-4.65077 2.25714,-5.80359 5.07624,-6.03278 1.23222,-0.10017 2.49218,0.0711 3.7869,0.51467 1.59463,0.54637 2.05427,0.89553 2.58017,1.96001 0.62483,1.26469 0.62275,1.33398 -0.0882,2.94118 -0.40045,0.90529 -0.7281,1.84982 -0.7281,2.09895 0,0.24913 -0.46744,0.84629 -1.03877,1.32703 -0.57132,0.48074 -0.96287,0.94997 -0.87009,1.04274 0.0928,0.0928 -0.36784,0.63974 -1.02357,1.21548 -0.65573,0.57574 -1.89137,1.96044 -2.74587,3.07711 -0.8545,1.11667 -2.06895,2.6908 -2.69877,3.49807 -1.11852,1.43364 -1.85348,2.78701 -1.85348,3.41304 0,0.72603 -2.54803,2.20718 -4.09746,2.38182 l -1.62351,0.183 z"
       id="path1" /></g></svg>
