<?xml version="1.0" encoding="UTF-8" standalone="no"?>
<!-- Created with Inkscape (http://www.inkscape.org/) -->

<svg
   width="155.85751mm"
   height="240.12636mm"
   viewBox="0 0 155.85751 240.12636"
   version="1.1"
   id="svg1"
   xml:space="preserve"
   xmlns="http://www.w3.org/2000/svg"
   xmlns:svg="http://www.w3.org/2000/svg"><defs
     id="defs1" /><g
     id="layer1"
     transform="translate(-29.273245,-17.441651)"><path
       style="fill:#000000"
       d="m 29.682732,257.04748 -0.409444,-0.52053 v -35.27583 c 0,-21.88273 0.06754,-35.45348 0.177898,-35.74374 0.09784,-0.25735 0.349225,-0.5596 0.558623,-0.67167 0.27114,-0.1451 16.971666,-0.23789 58.021518,-0.32234 55.563383,-0.11431 57.654333,-0.10634 58.016423,0.22136 0.45218,0.40921 0.48624,1.07894 0.0757,1.48943 -0.2619,0.2619 -0.87524,0.29317 -4.84225,0.2469 -4.01388,-0.0468 -4.51737,-0.0204 -4.3275,0.22727 0.11818,0.15415 0.84683,0.99535 1.61922,1.86934 0.7724,0.87398 1.58462,1.81987 1.80493,2.10197 l 0.40058,0.51291 h 2.98642 c 2.20281,0 3.03864,0.0629 3.18545,0.23982 0.44896,0.54096 -0.0591,0.68301 -2.63119,0.73557 l -2.55611,0.0522 2.0423,2.42675 c 2.08948,2.48282 2.10292,2.51018 1.7675,3.59891 -0.0559,0.18149 -1.65606,0.23356 -7.17782,0.23356 -3.90823,0 -7.10587,0.0354 -7.10587,0.0787 0,0.0433 0.42887,0.82101 0.95304,1.72829 0.52417,0.90729 1.24625,2.2159 1.60462,2.90804 l 0.65159,1.25843 5.54209,0.0495 5.5421,0.0495 0.0597,0.4204 0.0597,0.42039 -35.55974,0.025 c -19.557852,0.0138 -37.870417,0.0768 -40.694585,0.14013 l -5.134851,0.11513 -2.767169,3.64343 c -1.521943,2.00388 -2.85754,3.80346 -2.967992,3.99906 -0.194811,0.345 -0.110924,0.35252 2.802517,0.25142 2.402138,-0.0834 3.045572,-0.0533 3.214318,0.14999 0.116039,0.13982 0.16341,0.33119 0.105269,0.42526 -0.05814,0.0941 -1.686082,0.2317 -3.617646,0.30583 l -3.511934,0.13478 -3.391225,4.51355 -3.391225,4.51354 6.852654,0.0934 c 6.696951,0.0913 6.852653,0.10192 6.852653,0.46711 0,0.3664 -0.140858,0.37464 -7.225627,0.42258 l -7.225627,0.0489 -3.899374,5.27611 c -2.144655,2.90186 -4.091651,5.55067 -4.326658,5.88624 l -0.427286,0.61012 5.479913,-0.12263 c 7.615424,-0.17041 17.285156,0.0667 17.423497,0.42718 0.05653,0.14731 -0.646095,2.00851 -1.561383,4.136 -3.113178,7.23625 -5.991409,14.10304 -5.991409,14.29411 0,0.12903 6.436677,0.151 19.945412,0.0681 10.969976,-0.0673 33.707768,-0.12284 50.528418,-0.12336 l 30.58301,-9.3e-4 0.0591,-0.51222 c 0.0873,-0.75597 0.68404,-0.80072 0.83171,-0.0624 l 0.11492,0.57459 h 12.02797 12.02797 v -7.30288 -7.30287 l -1.4188,-1.61885 -1.41879,-1.61884 -4.13976,-0.0934 c -3.98406,-0.0899 -4.13977,-0.10748 -4.13977,-0.46711 0,-0.35756 0.15571,-0.37771 3.60881,-0.4671 l 3.60882,-0.0934 -3.14171,-3.42496 c -1.72794,-1.88373 -3.34047,-3.66887 -3.5834,-3.96698 -0.44235,-0.54281 -0.43436,-1.11433 0.0154,-1.10376 0.13167,0.003 2.00333,1.93692 4.15922,4.29737 l 3.91981,4.29175 h 1.26506 1.26507 v -5.78956 -5.78956 l -6.11909,-0.0493 c -5.9781,-0.0481 -6.11908,-0.0579 -6.11908,-0.42295 0,-0.36507 0.14098,-0.37482 6.11908,-0.42295 l 6.11909,-0.0493 v -4.09438 -4.09437 l -0.69652,-0.57413 -0.69652,-0.57413 H 171.2125 160.96054 l 1.88663,2.05359 c 1.03765,1.12947 1.88664,2.1755 1.88664,2.3245 0,0.94202 -0.85521,0.27452 -3.51245,-2.7415 l -1.43887,-1.63314 -8.46761,-0.002 -8.46761,-0.002 0.0597,-0.42039 0.0597,-0.4204 7.92062,-0.0934 7.92061,-0.0934 -2.50219,-2.68811 c -4.42028,-4.74874 -4.39894,-4.72061 -3.76585,-4.96354 0.2385,-0.0915 0.57271,0.14888 1.26118,0.90718 0.51518,0.56744 2.15147,2.3381 3.63618,3.9348 l 2.69949,2.90309 10.09921,-0.007 10.09921,-0.007 -0.93421,-0.86432 c -2.01204,-1.86151 -7.49875,-6.71432 -7.93856,-7.0214 -0.37811,-0.26399 -0.42653,-0.38521 -0.25943,-0.64951 0.23114,-0.36557 0.73953,-0.39263 7.68417,-0.409 l 3.9704,-0.009 v -2.98316 -2.98315 l -2.00856,-0.053 c -1.86631,-0.0493 -2.00855,-0.0795 -2.00855,-0.42672 0,-0.34663 0.14205,-0.37748 1.96184,-0.42615 l 1.96185,-0.0525 v -2.99857 c 0,-2.75254 0.0298,-3.02035 0.36268,-3.26398 0.51641,-0.3779 1.16254,-0.32834 1.61474,0.12386 l 0.38927,0.38926 -0.0623,32.39639 c -0.0617,32.10794 -0.0656,32.39966 -0.43597,32.76301 -0.36962,0.36263 -1.21289,0.36808 -77.45707,0.50049 l -77.083253,0.1332 z m 26.361426,-2.85237 c 0.262429,-0.59089 1.107237,-2.58777 1.877351,-4.43751 0.770114,-1.84974 2.278874,-5.3891 3.3528,-7.86526 l 1.952592,-4.5021 -3.757716,-0.12176 c -2.066744,-0.067 -7.132228,-0.12197 -11.256629,-0.12224 l -7.498913,-4.9e-4 -0.275584,0.42039 c -0.407389,0.62146 -4.569682,6.02127 -6.89652,8.94697 l -2.026144,2.54761 v 3.10436 3.10437 h 12.02581 12.02581 z m -22.99148,-8.59754 c 1.414504,-1.70483 6.311154,-8.12706 6.30867,-8.27417 -7.82e-4,-0.0463 -1.766441,-0.11241 -3.923687,-0.14685 l -3.922266,-0.0626 v 5.06065 c 0,2.78335 0.04016,5.06064 0.08925,5.06064 0.04909,0 0.700703,-0.73695 1.448028,-1.63766 z m 149.804952,-7.61103 v -0.84079 h -0.86507 -0.86507 l 0.72494,0.82319 c 0.39871,0.45275 0.78799,0.83111 0.86507,0.84079 0.0771,0.01 0.14013,-0.36076 0.14013,-0.82319 z M 42.779165,232.90567 c 1.416583,-1.93263 3.372249,-4.58588 4.345925,-5.89612 l 1.770319,-2.38223 h -8.690007 -8.690007 v 5.76097 c 0,3.16853 0.04142,5.80239 0.09205,5.85302 0.05063,0.0506 2.005467,0.11145 4.344082,0.13515 l 4.252028,0.0431 z m 10.173543,-13.74349 3.375788,-4.53093 -8.952814,-0.0485 -8.952814,-0.0485 -3.452741,3.22483 -3.45274,3.22482 -9.96e-4,1.35461 -9.96e-4,1.3546 h 9.030763 9.030763 z m -18.242498,-2.43328 2.317032,-2.19032 -2.755924,-3.8e-4 -2.755923,-3.7e-4 v 2.53593 2.53594 l 0.438892,-0.34524 c 0.24139,-0.18987 1.481556,-1.33088 2.755923,-2.53556 z m 4.166078,-3.99954 c 0.524473,-0.48085 2.396972,-2.28855 4.161109,-4.01711 l 3.20752,-3.14285 h -7.364761 -7.364761 v 4.01711 4.01711 h 3.203653 3.203652 z m 21.225973,-2.99285 c 1.59283,-2.11563 2.924082,-3.91872 2.958336,-4.00686 0.03425,-0.0881 -3.404861,-0.16025 -7.642479,-0.16025 h -7.704761 l -1.045685,0.9677 c -0.575128,0.53224 -2.443097,2.33994 -4.151043,4.01711 l -3.105356,3.04941 8.897466,-0.0103 8.897467,-0.0102 z m 122.755369,-0.33684 v -4.01711 l -4.99803,0.01 -4.99803,0.01 1.38194,1.25161 c 0.76007,0.68839 2.73593,2.48681 4.3908,3.99648 2.5498,2.32609 3.10149,2.74655 3.61608,2.75592 l 0.60724,0.0111 z m -132.564588,-7.75396 2.985096,-2.98947 h -7.679833 -7.679834 l -3.154827,2.57736 c -2.079524,1.69889 -3.175178,2.71783 -3.214534,2.98948 l -0.0597,0.41211 h 7.909271 7.90927 z m 15.854192,0.0467 2.186218,-2.94277 -6.868453,-0.0491 -6.868454,-0.0491 -2.991823,2.99183 -2.991823,2.99182 h 7.674058 7.674059 z m 12.779385,2.81936 c 2.128027,-0.0807 3.224237,-0.19162 3.226586,-0.3264 0.0027,-0.15669 1.325111,-3.37621 2.175103,-5.2956 0.0818,-0.1847 -1.454103,-0.23265 -7.343543,-0.22924 l -7.44697,0.004 -2.055264,2.73381 c -1.130396,1.50359 -2.122502,2.84692 -2.204681,2.98516 -0.123753,0.20819 0.758746,0.25126 5.138162,0.25079 2.908168,-3.1e-4 6.737941,-0.0556 8.510607,-0.12283 z m 19.629294,-2.07601 c 0.123754,-1.1025 0.275798,-2.42494 0.337875,-2.93875 l 0.112868,-0.93421 -6.787547,0.0934 -6.787548,0.0934 -1.172821,2.70921 c -0.645052,1.49007 -1.173313,2.79329 -1.173913,2.89606 -7.15e-4,0.12235 2.63032,0.16933 7.622494,0.13611 l 7.623586,-0.0507 z m 18.346107,1.87244 c -1.5e-4,-0.0771 -0.25714,-1.10704 -0.57109,-2.28882 -0.31394,-1.18178 -0.65362,-2.46491 -0.75484,-2.85141 l -0.18404,-0.70273 -7.69519,0.0488 -7.69519,0.0488 -0.139474,0.84079 c -0.07671,0.46243 -0.253636,1.78668 -0.393164,2.94276 l -0.253689,2.10198 h 8.843487 c 4.86391,0 8.84335,-0.0631 8.84319,-0.14013 z m 16.06863,-0.84079 c -0.31249,-0.53951 -1.04219,-1.83026 -1.62155,-2.86834 l -1.05338,-1.88742 -2.63289,-0.12045 c -1.44808,-0.0662 -4.57979,-0.12076 -6.95935,-0.12114 l -4.32646,-6.8e-4 0.77526,2.98947 0.77526,2.98948 h 7.80564 7.80565 z M 33.935471,200.6964 c 1.074134,-0.86518 2.083082,-1.67548 2.242107,-1.80067 0.231307,-0.18208 -0.206021,-0.2288 -2.186523,-0.23355 l -2.47566,-0.006 v 1.98472 c 0,1.55821 0.05019,1.94645 0.233553,1.8066 0.128454,-0.098 1.112389,-0.88599 2.186523,-1.75116 z m 6.221461,-4.98845 c 1.361568,-1.10774 2.887044,-2.32689 3.389947,-2.70921 l 0.914369,-0.69514 h -6.472927 -6.472926 v 2.70921 2.70922 h 3.082979 3.08298 z m 16.543714,-0.64843 2.645371,-2.6625 -6.74818,-0.0491 -6.74818,-0.0491 -3.15039,2.54317 c -1.732714,1.39874 -3.197226,2.61895 -3.25447,2.71157 -0.06112,0.0989 2.932883,0.16841 7.253199,0.16841 h 7.35728 z m 14.474177,-0.0547 2.010713,-2.70117 h -6.21708 -6.21708 l -2.70438,2.70921 -2.704379,2.70922 6.910747,-0.008 6.910747,-0.008 z m 14.430834,0.75541 c 0.426113,-1.02763 0.915177,-2.22576 1.086808,-2.6625 l 0.312056,-0.79408 h -6.340913 -6.340913 l -1.842715,2.47566 c -1.013493,1.36161 -1.906493,2.58175 -1.984445,2.71142 -0.113317,0.1885 1.309395,0.22595 7.09682,0.18684 l 7.238549,-0.0489 z m 13.548616,1.82172 c 0.0011,-0.0771 0.169247,-1.22384 0.373685,-2.54837 0.204438,-1.32454 0.371705,-2.48062 0.371705,-2.56909 0,-0.0885 -2.669509,-0.1597 -5.932242,-0.1583 l -5.932242,0.003 -1.027632,2.54769 c -0.565198,1.40123 -1.055659,2.61923 -1.089913,2.70668 -0.03426,0.0874 2.929531,0.15899 6.58619,0.15899 3.656658,0 6.649361,-0.0631 6.650449,-0.14013 z m 11.873567,-0.0467 h 4.15512 l -0.68177,-2.6625 -0.68178,-2.6625 -4.20395,-0.0584 c -2.31217,-0.0321 -5.22346,-0.003 -6.46953,0.0642 l -2.26558,0.12262 -0.31195,2.0845 c -0.17157,1.14648 -0.36212,2.37146 -0.42343,2.72218 l -0.11148,0.63769 3.41962,-0.12387 c 1.88079,-0.0681 5.28942,-0.12387 7.57473,-0.12387 z m 18.57974,0.12658 c 0,-0.0331 -0.65861,-1.27331 -1.46358,-2.75592 l -1.46359,-2.69566 -5.91668,-0.0493 c -3.25418,-0.0271 -5.91669,-3.3e-4 -5.91669,0.0596 0,0.10097 0.71754,3.00913 1.13779,4.61143 l 0.18306,0.69796 5.73893,0.0522 c 3.1564,0.0287 6.18033,0.072 6.71984,0.0961 0.53951,0.0241 0.98092,0.0168 0.98092,-0.0164 z m 15.20283,-0.36013 c -0.0772,-0.12845 -1.09373,-1.3476 -2.25904,-2.70921 l -2.11875,-2.47566 h -6.36197 -6.36197 l 0.36248,0.60724 c 0.19936,0.33398 0.85431,1.55312 1.45544,2.70921 l 1.09297,2.10197 h 7.16557 c 5.68271,0 7.13653,-0.0483 7.02527,-0.23355 z m -96.310098,-8.28261 c 1.653963,-1.2927 3.007205,-2.38573 3.007205,-2.42895 0,-0.0432 -4.498227,-0.0786 -9.996061,-0.0786 h -9.996061 v 2.42895 2.42895 h 6.988856 6.988856 z m 14.190322,-0.0887 2.308109,-2.41879 h -5.917645 -5.917645 l -2.743101,2.17257 c -1.508706,1.19491 -2.866217,2.28794 -3.016692,2.42895 -0.232197,0.21759 0.728931,0.25484 6.352637,0.24622 l 6.626228,-0.0102 z m 12.878521,0.12876 c 0.947427,-1.27069 1.722594,-2.36371 1.722594,-2.42895 0,-0.0652 -2.460745,-0.1186 -5.468322,-0.1186 h -5.468323 l -1.966668,2.00855 c -1.081668,1.10471 -2.123233,2.19774 -2.31459,2.42895 l -0.347921,0.4204 h 6.060318 6.060318 z m 12.754597,-0.1186 c 0.508486,-1.28454 0.924831,-2.35655 0.925211,-2.38224 3.8e-4,-0.0257 -2.416581,-0.0426 -5.371024,-0.0376 l -5.371715,0.009 -1.494738,2.05866 c -0.822106,1.13226 -1.610854,2.22233 -1.752773,2.42237 -0.254366,0.35854 -0.169897,0.36301 5.941242,0.31445 l 6.199277,-0.0493 z m 11.849468,2.00855 c 0.18244,-0.81735 0.65947,-3.78805 0.66006,-4.11053 5.5e-4,-0.30371 -0.37561,-0.32697 -5.288704,-0.32697 h -5.289298 l -0.879562,2.28882 c -0.483759,1.25885 -0.878182,2.35188 -0.876496,2.42895 0.0017,0.0771 2.607913,0.14013 5.791616,0.14013 h 5.788554 z m 13.32533,0.13931 c 0.0291,-0.0234 -0.22712,-1.04173 -0.56927,-2.26297 l -0.6221,-2.22042 h -5.21347 -5.21347 l -0.39273,2.29472 c -0.21599,1.26209 -0.35601,2.33142 -0.31113,2.3763 0.0802,0.0802 12.21908,-0.10461 12.32217,-0.18763 z m 12.52789,-0.0479 c -0.0343,-0.0782 -0.56676,-1.1288 -1.18333,-2.3347 l -1.12106,-2.19254 -5.18487,-8.2e-4 c -2.85168,-4.6e-4 -5.18487,0.052 -5.18487,0.11654 0,0.0645 0.2654,1.11554 0.58978,2.33553 l 0.58978,2.21816 h 5.77843 c 3.17813,0 5.75039,-0.064 5.71614,-0.14217 z m 13.10982,-0.37165 c -0.2206,-0.2826 -1.13055,-1.32709 -2.02212,-2.3211 l -1.62103,-1.80728 -5.37551,-0.0144 -5.37551,-0.0144 0.39922,0.79408 c 0.21957,0.43674 0.7746,1.48773 1.2334,2.33553 l 0.83419,1.54145 h 6.16422 6.16422 z m -64.352867,62.72693 c -3.693487,-0.64161 -6.177681,-2.55216 -7.402774,-5.69332 -0.403753,-1.03523 -0.442967,-1.45432 -0.51223,-5.47422 -0.08508,-4.9381 0.06622,-6.24067 0.937001,-8.06671 0.625415,-1.31149 2.086413,-2.91051 3.102334,-3.39542 l 0.62256,-0.29715 -0.642454,-0.39706 c -1.727109,-1.06741 -3.246538,-3.43537 -3.668295,-5.71686 -0.308516,-1.66892 -0.25653,-7.42262 0.07996,-8.84995 0.858657,-3.64225 3.309604,-6.06901 7.005963,-6.93681 1.515375,-0.35577 2.213474,-0.38273 9.829161,-0.37972 8.876249,0.004 9.851883,0.0885 11.76731,1.02568 2.103037,1.02892 3.855646,3.15986 4.489341,5.45845 0.49946,1.81167 0.51605,9.50923 0.0239,11.09865 -0.42121,1.36037 -1.650497,3.19115 -2.660588,3.96241 l -0.797392,0.60885 1.036712,0.83255 c 1.203291,0.96633 2.079188,2.17062 2.679358,3.68392 0.38927,0.98153 0.4312,1.43286 0.49516,5.3306 0.0801,4.88129 -0.13758,6.53055 -1.1227,8.50639 -1.006543,2.0188 -3.144821,3.64085 -5.856539,4.44265 -0.977248,0.28895 -2.143476,0.33329 -9.797457,0.37246 -4.778491,0.0245 -9.102254,-0.0275 -9.608362,-0.11539 z m 14.724141,-8.83746 c 0.892611,-0.58543 1.050449,-1.28724 1.045913,-4.65053 -0.0035,-2.58084 -0.05778,-3.1604 -0.358029,-3.8217 -0.652045,-1.43612 -0.762613,-1.46259 -6.108718,-1.46259 -4.498635,0 -4.7362,0.0178 -5.239801,0.39321 -1.070289,0.7978 -1.169476,1.19061 -1.224485,4.84931 -0.07921,5.26857 -0.226399,5.15505 6.59122,5.08373 4.256979,-0.0445 4.829511,-0.0869 5.2939,-0.39143 z m -0.825018,-18.16249 c 1.237557,-0.72704 1.410419,-1.29595 1.388896,-4.57103 -0.01095,-1.6664 -0.10814,-3.11418 -0.228896,-3.40978 -0.115425,-0.28256 -0.485216,-0.68162 -0.821757,-0.88681 -0.566018,-0.3451 -0.941096,-0.37291 -5.002688,-0.37101 -4.81986,0.002 -5.025814,0.0418 -5.739792,1.10124 -0.399053,0.59216 -0.426003,0.81999 -0.426003,3.60144 0,2.57882 0.04808,3.06354 0.365653,3.68602 0.619363,1.21406 1.137484,1.32799 5.800142,1.27547 3.656387,-0.0412 4.075237,-0.0794 4.664445,-0.42554 z m 26.538214,26.99476 c -4.99606,-0.68081 -8.29079,-3.68464 -9.08417,-8.2821 -0.22468,-1.30197 -0.26266,-3.91223 -0.21827,-14.99907 l 0.0538,-13.42278 0.52647,-1.49474 c 1.15366,-3.2754 3.07362,-5.1615 6.53007,-6.41487 l 1.35136,-0.49003 8.70902,-0.0609 c 7.4146,-0.0519 8.89752,-0.0172 9.97729,0.23321 3.81425,0.88458 6.61346,3.57354 7.68943,7.38656 0.31844,1.1285 0.3427,2.19989 0.3427,15.13422 0,12.61025 -0.0305,14.03856 -0.32467,15.18261 -0.45387,1.76537 -1.14002,3.02624 -2.32017,4.26351 -1.19782,1.25578 -2.66954,2.08613 -4.67677,2.63863 -1.37374,0.37814 -1.92899,0.40451 -9.40077,0.44657 -4.36744,0.0246 -8.48731,-0.0298 -9.15527,-0.1208 z m 13.22837,-9.59407 c 0.27749,-0.14438 0.71473,-0.48743 0.97164,-0.76233 l 0.46711,-0.49982 0.051,-11.42686 c 0.0371,-8.3181 -0.008,-11.56858 -0.16481,-11.94779 -0.11868,-0.28651 -0.47793,-0.70793 -0.79834,-0.93648 -0.55222,-0.3939 -0.79668,-0.41883 -4.69309,-0.4786 -4.73043,-0.0726 -5.74023,0.0696 -6.55804,0.92321 l -0.54197,0.5657 v 11.55825 c 0,11.39612 0.005,11.56565 0.38697,12.08577 0.80452,1.09674 1.23335,1.18085 6.02166,1.18117 3.37529,2.3e-4 4.46671,-0.0587 4.8579,-0.26222 z m 23.11753,9.4985 c -4.50444,-0.84148 -6.68126,-3.66759 -6.4177,-8.33192 0.0684,-1.20981 0.12563,-1.36706 0.67751,-1.86017 l 0.60284,-0.53864 h 3.07116 c 1.93055,0 3.24769,0.0804 3.54648,0.21658 0.49455,0.22533 0.84714,1.08968 0.84912,2.08152 0.001,0.75415 0.48323,1.57549 1.11597,1.90269 0.64692,0.33453 3.99208,0.39378 5.08556,0.0901 0.37876,-0.1052 0.90425,-0.4475 1.16777,-0.76066 0.41835,-0.49719 0.47911,-0.74211 0.47911,-1.93118 0,-1.58662 -0.30497,-2.12881 -1.45663,-2.58961 -0.39394,-0.15762 -2.65028,-0.66729 -5.01409,-1.13259 -2.36381,-0.4653 -4.76347,-1.02021 -5.33258,-1.23314 -2.21763,-0.82972 -3.54393,-2.08758 -4.20789,-3.99073 -0.27387,-0.78503 -0.33645,-1.54872 -0.3319,-4.05033 0.006,-3.33852 0.19511,-4.5496 0.94481,-6.05298 1.06233,-2.13032 2.77908,-3.23132 5.87816,-3.76984 2.61315,-0.45408 10.11187,-0.29157 12.18333,0.26404 3.43752,0.92201 4.8703,2.63373 5.37423,6.42051 0.30572,2.29734 0.20697,3.10746 -0.4372,3.58669 -0.48147,0.35819 -0.7744,0.39237 -3.36316,0.39237 -2.01697,0 -2.96171,-0.0718 -3.27197,-0.2486 -0.56085,-0.31962 -0.96511,-1.29501 -0.96511,-2.32863 0,-0.60313 -0.10899,-0.91631 -0.42039,-1.20803 -0.68616,-0.64276 -1.3591,-0.7924 -3.56217,-0.79209 -2.57552,3.6e-4 -3.26687,0.26575 -3.64978,1.40103 -0.31778,0.94217 -0.0401,3.09983 0.491,3.81548 0.46683,0.62905 2.38265,1.18604 6.20713,1.80465 3.69244,0.59724 4.87872,0.90638 6.22671,1.62263 1.31934,0.70103 2.22741,1.71951 2.77477,3.11216 0.35158,0.89451 0.42083,1.50645 0.48795,4.31187 0.1067,4.45934 -0.2188,5.79905 -1.83499,7.55241 -0.89562,0.97163 -2.17266,1.6834 -3.74694,2.08839 -1.72886,0.44476 -11.01577,0.55495 -13.15111,0.15604 z m -2.8425,-49.39778 c -0.84265,-0.5138 -1.00392,-0.90184 -0.78536,-1.88964 0.45269,-2.04597 2.61327,-9.08516 4.03943,-13.16046 0.98899,-2.82612 1.60059,-4.12193 2.05876,-4.36198 1.09892,-0.57577 3.30944,-0.33333 4.0915,0.44874 0.5704,0.57039 0.55945,1.21773 -0.0476,2.81665 -0.268,0.70589 -0.85458,2.33442 -1.3035,3.61896 l -0.81623,2.33553 0.976,-1.12106 c 5.46554,-6.27789 7.18492,-7.47024 11.10682,-7.70231 l 1.72185,-0.10188 0.64363,0.64362 c 1.22549,1.22549 1.13981,2.81422 -0.37155,6.88977 -1.1236,3.02992 -1.75394,5.14311 -1.75394,5.88004 0,0.69571 0.48769,1.21051 1.14676,1.21051 0.93755,0 4.19913,-2.33067 6.0049,-4.291 0.94156,-1.02215 1.41454,-1.15597 2.00361,-0.5669 0.82429,0.82428 0.27214,2.13043 -1.8321,4.33395 -1.91291,2.00318 -4.12553,3.75691 -5.77038,4.57364 -1.14747,0.56976 -1.58469,0.68075 -2.99941,0.76142 -1.97102,0.11238 -2.50979,-0.0947 -3.33015,-1.27967 -0.52167,-0.75358 -0.5474,-0.88319 -0.5311,-2.67551 0.018,-1.97628 0.17638,-2.72676 1.45486,-6.89336 0.71525,-2.33101 0.70083,-2.931 -0.0704,-2.931 -0.88965,0 -4.76035,4.26284 -8.7372,9.62238 -2.86433,3.8602 -3.28733,4.2044 -5.16549,4.20325 -0.79739,-4.9e-4 -1.3167,-0.10943 -1.73369,-0.36369 z m 28.48622,-19.53518 c -0.28002,-0.15753 -0.59531,-0.44746 -0.70066,-0.64431 -0.26838,-0.50147 -0.23838,-1.53029 0.0663,-2.27477 0.14184,-0.34653 0.31566,-0.81924 0.38628,-1.05045 l 0.12839,-0.4204 h -3.34679 c -3.03062,0 -3.37664,-0.033 -3.66264,-0.34901 -0.17372,-0.19195 -1.22363,-3.07166 -2.33314,-6.39934 l -2.01728,-6.05035 -1.43267,-0.0546 -1.43267,-0.0546 v 6.1447 c 0,5.71559 -0.0239,6.16629 -0.34169,6.45392 -0.29133,0.26365 -0.8378,0.30922 -3.70789,0.30922 -3.10378,0 -3.39198,-0.0285 -3.69697,-0.3655 -0.31092,-0.34356 -0.3322,-1.37248 -0.35451,-17.14278 -0.0188,-13.30594 0.0256,-16.86426 0.21497,-17.19767 l 0.2387,-0.4204 h 6.91447 c 7.50802,0 8.80601,0.12697 10.76489,1.05303 2.1765,1.02895 3.89048,3.33716 4.45453,5.99891 0.35095,1.65614 0.35383,6.27389 0.005,7.91993 -0.48896,2.30686 -1.86863,4.33139 -3.64384,5.34697 -0.46834,0.26794 -0.87349,0.50115 -0.90032,0.51826 -0.0539,0.0344 4.77286,12.62955 4.88165,12.73834 0.0374,0.0374 0.71937,-1.63726 1.51549,-3.72147 1.76316,-4.61589 1.80879,-4.70659 2.51473,-4.99901 1.29191,-0.53512 2.81456,0.43709 2.81456,1.79709 0,0.88798 -4.24153,11.76851 -4.85578,12.45623 -0.57808,0.64724 -1.71454,0.83472 -2.47308,0.408 z m -10.40233,-23.66011 c 1.57124,-0.52513 2.31944,-1.96964 2.30947,-4.45879 -0.007,-1.78669 -0.26563,-2.72996 -0.98102,-3.58016 -0.72322,-0.85949 -1.46352,-1.0909 -3.48996,-1.0909 h -1.781 v 4.67106 4.67106 h 1.65369 c 0.90954,0 1.93951,-0.0955 2.28882,-0.21227 z m -129.874199,19.9129 c -2.697966,-0.58154 -5.249687,-2.37602 -6.394396,-4.49681 -1.090005,-2.01943 -1.132652,-2.46996 -1.216651,-12.85283 -0.05362,-6.62749 -0.01211,-9.8866 0.13683,-10.74343 0.612122,-3.52148 3.027861,-6.0412 7.007111,-7.30873 1.82975,-0.58284 6.346174,-0.73855 8.368926,-0.28853 2.55838,0.56919 4.602629,2.16499 5.744404,4.48427 0.472122,0.95901 0.614733,1.55449 0.769182,3.21175 0.23838,2.55785 0.08514,4.209 -0.434326,4.6798 -0.329899,0.299 -0.781073,0.35191 -3.439519,0.40337 -3.057112,0.0592 -3.060229,0.0588 -3.530948,-0.4119 -0.422569,-0.42257 -0.471346,-0.62128 -0.473191,-1.92766 -0.0029,-2.03517 -0.160689,-2.78278 -0.701617,-3.32371 -0.652349,-0.65235 -2.480302,-0.67594 -3.425936,-0.0442 -1.326638,0.88625 -1.301433,0.66797 -1.245493,10.78642 0.04596,8.31408 0.07783,9.11264 0.386143,9.67735 0.482433,0.88363 1.339629,1.34481 2.501136,1.34565 2.09165,0.001 2.496119,-0.56434 2.633818,-3.68465 0.0563,-1.2757 0.18729,-2.23561 0.332108,-2.43367 0.212156,-0.29014 0.611705,-0.32704 3.540453,-0.32704 3.29512,0 3.302024,8.7e-4 3.682741,0.4671 0.352202,0.43131 0.3731,0.63893 0.272694,2.70921 -0.05981,1.23316 -0.246898,2.70455 -0.415761,3.26974 -1.050066,3.51467 -3.764207,6.11139 -7.134133,6.82549 -1.598364,0.3387 -5.356012,0.32954 -6.963575,-0.017 z m 25.283932,0.0985 c -4.311387,-0.77416 -7.123035,-3.45384 -7.995155,-7.61987 -0.412421,-1.97009 -0.415535,-19.10196 -0.0038,-21.05425 1.074648,-5.0959 5.409989,-7.83655 11.862443,-7.499 4.446057,0.23259 7.013351,1.42074 8.858429,4.09971 1.786938,2.59456 2.06183,4.81432 1.924953,15.54404 -0.07531,5.90349 -0.157965,7.74847 -0.393417,8.78158 -0.819848,3.59733 -3.297945,6.28053 -6.839962,7.40609 -1.391086,0.44205 -5.73863,0.64244 -7.413464,0.3417 z m 4.949047,-7.28547 c 1.253081,-0.76398 1.249942,-0.73655 1.249942,-10.92548 v -9.15528 l -0.427841,-0.68804 c -1.089173,-1.7516 -4.447395,-1.64851 -5.202918,0.15971 -0.203454,0.48693 -0.254714,2.4645 -0.254482,9.81774 3.25e-4,10.30604 -0.01463,10.18203 1.307605,10.84256 0.913203,0.4562 2.536421,0.43122 3.327694,-0.0512 z m 21.060973,7.28355 c -4.629648,-0.72869 -7.592178,-3.54353 -8.452721,-8.03133 -0.455045,-2.37309 -0.453005,-18.0828 0.0026,-20.26719 0.857056,-4.10884 3.52738,-6.80308 7.58963,-7.6576 2.007952,-0.42239 5.932631,-0.37888 7.749933,0.0859 2.990933,0.76496 5.173415,2.5131 6.369525,5.10192 1.05683,2.28736 1.12211,3.02345 1.12211,12.65269 0,7.74449 -0.0369,8.84551 -0.33987,10.13686 -0.9544,4.06816 -3.403463,6.60686 -7.35543,7.62465 -1.693938,0.43625 -5.03843,0.61339 -6.685809,0.3541 z m 4.702982,-7.39583 c 0.274868,-0.20522 0.673114,-0.60536 0.88499,-0.88921 0.376858,-0.50487 0.385229,-0.71574 0.385229,-9.70426 0,-8.81448 -0.0152,-9.21856 -0.373684,-9.93553 -0.535821,-1.07164 -1.352591,-1.44571 -2.936841,-1.34501 -1.465925,0.0932 -2.011827,0.39398 -2.500367,1.37773 -0.33394,0.67244 -0.354903,1.24988 -0.354903,9.7765 0,8.56722 0.01962,9.10139 0.359511,9.78621 0.489803,0.98688 1.50926,1.45942 2.95945,1.37178 0.703947,-0.0426 1.249918,-0.19429 1.576615,-0.43821 z m 12.921845,6.29941 -0.44109,-0.35714 -0.0456,-16.69222 c -0.0361,-13.21921 0.004,-16.7894 0.19231,-17.15932 l 0.23789,-0.46711 7.049,-0.049 c 7.78282,-0.054 8.71235,0.0362 10.89685,1.05849 2.17612,1.01833 3.62804,2.98211 4.25399,5.75368 0.39669,1.75645 0.41415,7.07188 0.0292,8.88853 -0.76127,3.59254 -3.59645,6.35645 -7.33241,7.14809 -0.78032,0.16535 -2.36405,0.26995 -4.11741,0.27195 l -2.84935,0.003 v 5.59799 c 0,5.51816 -0.006,5.60343 -0.40892,5.97896 -0.37958,0.35364 -0.64611,0.38096 -3.71614,0.38096 -2.97776,0 -3.35117,-0.0356 -3.74833,-0.35714 z m 13.04531,-18.99075 c 0.28972,-0.21086 0.73697,-0.79942 0.99388,-1.30789 0.41757,-0.82647 0.4671,-1.15235 0.4671,-3.07319 0,-1.94316 -0.0447,-2.22911 -0.4671,-2.98948 -0.7297,-1.31345 -1.63824,-1.68158 -4.15012,-1.68158 h -2.01568 v 4.77972 4.77972 l 2.32257,-0.0619 c 1.98563,-0.053 2.39899,-0.11757 2.84935,-0.44535 z m 12.32679,18.81936 c -0.28292,-0.31262 -0.30922,-1.7737 -0.30922,-17.17614 0,-15.05493 0.031,-16.8655 0.29361,-17.12807 0.2592,-0.2592 1.40439,-0.29361 9.77185,-0.29361 7.12284,0 9.53396,0.0557 9.70245,0.22421 0.33195,0.33195 0.31373,6.38206 -0.0201,6.65908 -0.16199,0.13444 -2.113,0.21091 -5.79211,0.22704 l -5.54784,0.0243 v 3.34585 3.34585 h 4.63369 c 3.35486,0 4.69557,0.0619 4.8579,0.22421 0.31506,0.31507 0.31506,6.52336 0,6.83843 -0.16233,0.16233 -1.50304,0.22421 -4.8579,0.22421 h -4.63369 v 3.36316 3.36316 h 5.5679 c 4.08147,0 5.62776,0.0599 5.79211,0.22421 0.15638,0.15638 0.22421,1.16258 0.22421,3.32579 0,2.16322 -0.0678,3.16942 -0.22421,3.3258 -0.16848,0.16848 -2.57614,0.22421 -9.68684,0.22421 -8.92995,0 -9.48003,-0.0192 -9.77185,-0.34169 z M 30.032135,139.66079 c -0.221983,-0.17984 -0.481528,-0.66329 -0.576769,-1.07435 -0.103363,-0.44611 -0.17496,-16.77373 -0.177621,-40.506553 l -0.0045,-39.759189 0.458613,-0.458612 0.458612,-0.458613 H 49.6016 c 18.567899,0 19.424563,0.01484 19.720352,0.341686 0.379308,0.41913 0.395884,0.963115 0.04401,1.444315 -0.254963,0.348673 -0.503999,0.360215 -6.446058,0.298764 l -6.180849,-0.06392 v 5.342216 5.342216 h 6.049496 c 5.068512,0 6.086112,0.04412 6.275301,0.272079 0.124193,0.149643 0.171566,0.359841 0.105272,0.467105 -0.07978,0.129088 -2.201471,0.195027 -6.275301,0.195027 H 56.7391 v 5.792111 5.792111 h 5.698689 5.698689 l 0.0029,-1.167764 c 0.0032,-1.318222 0.16438,-1.702028 0.673475,-1.603985 0.303855,0.05852 0.351296,0.243934 0.351296,1.372991 v 1.305337 l 3.550003,0.09342 c 3.394301,0.08932 3.550003,0.109811 3.550003,0.467106 0,0.358944 -0.141464,0.375684 -3.586266,0.424393 l -3.586265,0.05071 0.01115,5.505102 0.01116,5.505103 5.536954,0.04946 c 5.395907,0.0482 5.536954,0.05898 5.536954,0.423143 0,0.363455 -0.155701,0.376242 -5.688049,0.467105 l -5.688049,0.09342 -1.06077,2.989476 -1.06077,2.98947 3.946185,0.0934 c 3.91789,0.0928 3.946614,0.0964 4.005891,0.51382 l 0.05971,0.4204 h -4.194521 -4.19452 l -0.761119,2.28881 c -0.615814,1.85187 -0.834115,2.30022 -1.143479,2.34853 -0.553337,0.0864 -0.499557,-0.47907 0.260103,-2.73482 l 0.642463,-1.90774 -5.908017,0.0493 -5.908017,0.0493 -1.460767,3.15508 c -0.803423,1.73529 -1.460768,3.18565 -1.460768,3.22302 0,0.0374 2.181092,0.068 4.846872,0.068 4.882503,0 5.357922,0.0647 4.862133,0.66213 -0.187367,0.22576 -1.073998,0.27208 -5.20854,0.27208 h -4.982734 l -1.87044,4.06382 -1.870439,4.06382 3.372759,0.0934 c 3.217057,0.0891 3.372759,0.11067 3.372759,0.4671 0,0.35763 -0.155702,0.3777 -3.623618,0.46711 l -3.623619,0.0934 -1.994043,4.39079 -1.994042,4.3908 4.68345,0.0934 c 4.527748,0.0903 4.68345,0.10584 4.68345,0.4671 0,0.36193 -0.155702,0.37663 -4.948532,0.46711 l -4.948532,0.0934 -1.060255,2.33553 c -0.583141,1.28454 -1.441398,3.19734 -1.907239,4.25066 l -0.846983,1.91513 h 6.790565 6.790565 l 0.85332,-3.50329 c 0.814476,-3.34382 1.826539,-8.42068 2.076501,-10.41646 0.758787,-6.05837 5.219918,-11.98607 11.327089,-15.05079 1.008159,-0.50592 4.590091,-2.1902 7.959849,-3.74285 11.733185,-5.406187 12.716802,-5.89467 13.193644,-6.552213 0.482048,-0.664723 0.664581,-2.562593 0.677069,-7.039759 l 0.01007,-3.611908 -1.200057,-1.806518 c -1.750317,-2.634854 -2.866279,-5.379663 -3.469214,-8.53284 -0.335016,-1.752036 -0.347199,-1.775002 -0.941579,-1.775002 -0.297509,0 -0.997672,-0.17089 -1.555916,-0.379756 -3.51257,-1.314221 -4.916969,-4.215017 -5.83162,-12.045255 -0.509363,-4.360606 -0.192309,-6.0793 1.45181,-7.870026 0.774357,-0.843406 2.321726,-1.746749 2.998543,-1.750527 0.396286,-0.0022 0.395145,0.07041 0.03599,-2.291873 -0.880899,-5.793897 -1.036489,-9.182561 -0.549767,-11.973628 0.715067,-4.100501 3.031838,-8.36326 6.560805,-12.071601 4.715469,-4.955151 9.575755,-7.721237 16.311508,-9.283203 9.06047,-2.10105 22.13942,1.515337 24.88311,6.880286 0.27196,0.531798 0.6628,0.850218 1.70912,1.392427 1.03304,0.535334 1.82434,1.175226 3.31836,2.68344 2.81038,2.837072 4.5086,5.752842 5.55126,9.531258 0.4654,1.686507 0.46004,7.718062 -0.01,11.020539 -0.18274,1.284541 -0.37901,2.718233 -0.43614,3.185982 l -0.10388,0.850454 0.78128,0.257845 c 1.70052,0.56122 3.18469,2.468351 3.57841,4.59817 0.20242,1.094992 -0.0396,3.68811 -0.76769,8.226732 -0.90386,5.633968 -3.05716,8.575037 -6.60168,9.016866 l -0.92491,0.115292 -0.43598,1.961844 c -0.77356,3.480879 -2.07115,6.530188 -3.74832,8.808463 l -0.80626,1.095227 0.004,4.717243 c 0.005,6.309883 -0.18835,5.886078 3.49453,7.640311 1.51832,0.72322 4.86256,2.28531 7.43164,3.47133 11.27564,5.20539 13.77339,6.56255 16.20217,8.80352 2.34611,2.16468 4.4827,5.64106 5.47286,8.90473 0.24942,0.82211 0.66832,2.84 0.93089,4.48422 0.37522,2.34964 1.97244,9.86522 2.44651,11.51185 0.0769,0.26697 0.87584,0.317 7.00814,0.43887 3.80676,0.0756 6.96179,0.0971 7.01117,0.0478 0.0494,-0.0494 -0.72016,-1.84438 -1.71012,-3.98888 -0.98995,-2.14449 -1.84461,-4.04621 -1.89925,-4.22605 -0.0913,-0.3006 -0.49596,-0.32697 -5.01784,-0.32697 -4.94912,0 -5.43001,-0.0642 -4.93644,-0.65891 0.1807,-0.21773 1.08441,-0.27836 4.75142,-0.31879 l 4.52829,-0.0499 -1.92212,-4.11053 c -1.05716,-2.2608 -2.01167,-4.25767 -2.12112,-4.43751 -0.17883,-0.29381 -0.57673,-0.32697 -3.92325,-0.32697 -3.75167,0 -4.22017,-0.083 -3.73949,-0.66213 0.18265,-0.22009 0.87976,-0.27208 3.64816,-0.27208 h 3.42236 L 166.5842,115.091 c -0.81945,-1.77267 -1.67616,-3.60139 -1.90379,-4.06382 l -0.41387,-0.84079 -4.95132,-0.0934 c -4.79562,-0.0905 -4.95132,-0.10518 -4.95132,-0.46711 0,-0.3625 0.1412,-0.37518 4.71777,-0.4236 2.59477,-0.0275 4.71777,-0.08 4.71777,-0.11684 0,-0.0368 -0.66026,-1.48572 -1.46724,-3.21982 l -1.46723,-3.1529 -5.88978,-0.0493 -5.88977,-0.0493 0.71727,2.18019 c 0.39449,1.19911 0.67334,2.25126 0.61966,2.33812 -0.17327,0.28036 -0.77915,0.16773 -0.9094,-0.16904 -0.0695,-0.17984 -0.41854,-1.2292 -0.77554,-2.33191 l -0.6491,-2.00493 -4.05563,-0.0503 c -3.91429,-0.0486 -4.05563,-0.0634 -4.05563,-0.42402 0,-0.36012 0.14141,-0.37552 3.89549,-0.42424 2.98346,-0.0387 3.8766,-0.10434 3.81479,-0.28027 -0.0444,-0.12633 -0.53025,-1.552766 -1.07969,-3.169849 l -0.99898,-2.940151 -5.80528,-0.04933 c -5.66428,-0.04813 -5.80528,-0.0584 -5.80528,-0.42301 0,-0.364359 0.14104,-0.374918 5.65197,-0.423134 l 5.65198,-0.04945 v -5.411652 -5.411652 l -3.59671,-0.05075 c -3.45524,-0.04875 -3.59671,-0.06544 -3.59671,-0.424429 0,-0.358955 0.14146,-0.375684 3.58892,-0.424403 l 3.58893,-0.05072 0.0545,-1.444021 c 0.0491,-1.301293 0.0914,-1.44402 0.42818,-1.44402 0.33684,0 0.37906,0.142751 0.42825,1.448027 l 0.0546,1.448028 h 5.69083 5.69083 V 76.837612 71.04802 l -6.2125,-0.04923 c -6.07154,-0.04811 -6.21251,-0.05771 -6.21251,-0.422914 0,-0.365205 0.14097,-0.374802 6.21251,-0.422914 l 6.2125,-0.04923 V 64.874667 59.64558 h -5.84982 c -6.34217,0 -6.52848,-0.02858 -6.52848,-1.001684 0,-0.27799 0.14966,-0.670809 0.33258,-0.87293 0.32658,-0.360871 0.6773,-0.367493 19.46344,-0.367493 h 19.13087 l 0.45861,0.458613 0.45861,0.458612 v 40.287378 40.287374 l -0.54615,0.54616 -0.54615,0.54615 h -32.8074 -32.8074 l 0.14234,-0.79408 c 0.23589,-1.31596 0.13299,-4.07995 -0.19998,-5.37171 -0.54409,-2.11084 -1.55137,-3.86017 -3.14687,-5.46514 -0.79172,-0.79642 -1.55594,-1.44803 -1.69828,-1.44803 -0.14234,0 -1.15207,1.55546 -2.24384,3.45658 l -1.98505,3.45659 3.21344,0.001 3.21344,0.002 -3.09417,3.08139 -3.09417,3.08139 h -3.20073 c -1.96896,0 -3.24594,-0.0732 -3.31822,-0.19011 -0.0646,-0.10456 0.26403,-0.58801 0.73033,-1.07434 l 0.84782,-0.88423 -2.51636,-0.052 c -1.38399,-0.0286 -2.516349,-0.10334 -2.516349,-0.16612 0,-0.17115 1.549489,-1.89536 6.426239,-7.15084 2.42583,-2.61424 4.41061,-4.81535 4.41061,-4.89137 0,-0.31379 -2.22499,-0.57886 -4.10704,-0.48927 -2.2913,0.10906 -3.83683,0.54615 -5.58965,1.58081 -2.428228,1.43335 -4.209844,3.68636 -5.197835,6.57313 -0.400617,1.17055 -0.488758,1.77957 -0.50286,3.47459 -0.0094,1.1304 0.04386,2.32852 0.118361,2.6625 l 0.13546,0.60724 H 62.827502 c -30.570982,0 -32.414449,-0.0184 -32.795367,-0.32697 z m 8.344711,-6.1658 c 1.036876,-2.33786 1.857687,-4.27905 1.824024,-4.31375 -0.03366,-0.0347 -1.959628,-0.002 -4.27992,0.0729 l -4.218713,0.13596 v 4.17779 4.17779 h 2.394689 2.394689 z m 29.946475,-0.71372 v -4.7684 l 0.458613,-0.45861 c 0.377551,-0.37755 0.643253,-0.45862 1.503231,-0.45862 0.859977,0 1.125679,0.0811 1.50323,0.45862 l 0.458613,0.45861 v 4.77297 4.77297 h 9.809219 9.809219 v -1.18459 c 0,-3.77152 2.403769,-8.35271 5.698689,-10.86075 2.346758,-1.78633 4.601215,-2.68339 7.793295,-3.10102 2.03757,-0.26657 4.2887,-0.0533 6.12645,0.58042 l 1.02764,0.35437 1.31085,-1.34883 c 0.72096,-0.74185 1.92742,-2.02146 2.68102,-2.84356 0.79422,-0.86643 1.20241,-1.21985 0.97106,-0.84079 -1.4516,2.37841 -3.37477,5.6176 -3.37477,5.68411 0,0.0436 0.57903,0.46424 1.28673,0.93472 2.36666,1.57335 4.5488,4.34789 5.46116,6.94372 0.49554,1.40989 0.91264,3.58736 0.91264,4.76443 v 0.91777 h 10.08063 10.08064 l 0.0556,-4.87467 c 0.0555,-4.86689 0.0563,-4.87524 0.49665,-5.23158 0.32033,-0.2592 0.72956,-0.35529 1.49474,-0.35097 2.01144,0.0113 2.08127,0.2082 2.08127,5.8673 v 4.58992 h 6.53948 c 5.10714,0 6.53943,-0.0512 6.53926,-0.23355 -1.3e-4,-0.12845 -0.28833,-1.57882 -0.64045,-3.22303 -0.35212,-1.64421 -0.86096,-4.25066 -1.13076,-5.79211 -0.85085,-4.86124 -1.03382,-5.6864 -1.62034,-7.30732 -0.6342,-1.75268 -1.86146,-3.74608 -3.25818,-5.29212 -2.11036,-2.33599 -5.13107,-4.06451 -14.65007,-8.3831 -2.72322,-1.23547 -5.58917,-2.53963 -6.36878,-2.89812 l -1.41746,-0.65181 -0.98897,1.29679 c -1.23784,1.62312 -3.45553,3.83688 -5.04805,5.03909 -1.51275,1.142 -4.77758,2.77728 -7.0366,3.52448 -3.50194,1.1583 -8.69072,1.70034 -12.67832,1.32443 -6.121246,-0.57704 -11.037171,-2.28949 -14.753235,-5.13923 -1.334553,-1.02343 -4.02787,-3.69835 -5.083048,-5.04834 l -0.578781,-0.74048 -1.470111,0.68151 c -0.808561,0.37483 -4.136627,1.90373 -7.395702,3.39756 -3.259075,1.49383 -6.621568,3.06598 -7.472207,3.49367 -5.129013,2.57882 -7.953029,5.77124 -9.473505,10.70936 -0.219004,0.71127 -0.652235,2.76616 -0.962735,4.56643 -0.310501,1.80027 -0.901865,4.70761 -1.314143,6.46074 -0.412278,1.75314 -0.794734,3.43976 -0.849902,3.74805 l -0.100306,0.56052 6.743268,-0.0513 6.743268,-0.0513 z m 114.534309,0.66701 v -4.29737 h -4.29737 c -2.36356,0 -4.29738,0.0291 -4.29738,0.0647 0,0.0356 0.32072,0.72924 0.71271,1.54144 0.39199,0.81221 1.2538,2.71391 1.91513,4.22602 l 1.20243,2.74928 2.38224,0.007 2.38224,0.007 z m -144.961763,-5.16726 2.923889,-0.12127 1.907189,-4.22219 c 1.048954,-2.3222 1.95032,-4.33001 2.003036,-4.4618 0.07697,-0.19242 -1.196759,-0.23583 -6.465948,-0.22036 l -6.561796,0.0193 v 4.56444 4.56444 l 1.63487,-6.2e-4 c 0.899178,-3.4e-4 2.95062,-0.0552 4.55876,-0.1219 z m 144.961763,-4.4281 v -4.36377 l -1.26119,-0.11911 c -0.69365,-0.0655 -3.67017,-0.11971 -6.6145,-0.12044 l -5.35331,-0.001 2.07233,4.48421 2.07233,4.48422 h 4.54217 4.54217 z M 45.681765,117.42191 c 0.210136,-0.48557 1.055276,-2.33322 1.87809,-4.10588 L 49.05588,110.093 h -6.297168 -6.297168 l -2.09939,3.98261 c -1.154665,2.19043 -2.099427,4.06119 -2.099471,4.15724 -5e-5,0.10592 2.564564,0.15442 6.518468,0.12327 l 6.51855,-0.0513 z m 136.802175,1.01206 c 0,-0.0368 -0.99431,-1.86553 -2.20959,-4.06382 l -2.20959,-3.99689 -6.21782,-0.15176 c -3.41981,-0.0835 -6.26133,-0.10825 -6.31451,-0.0551 -0.0532,0.0532 0.72887,1.90655 1.73787,4.11862 l 1.83454,4.02193 4.02705,0.0541 c 2.21488,0.0298 5.22517,0.0734 6.68955,0.097 1.46438,0.0236 2.6625,0.0128 2.6625,-0.0241 z m -148.701122,-5.2489 c 0.808182,-1.5364 1.469422,-2.86064 1.469422,-2.94276 0,-0.0821 -0.79875,-0.14931 -1.775001,-0.14931 h -1.775002 l 0.0075,3.50329 c 0.0071,3.31915 0.02315,3.47383 0.305579,2.94277 0.163955,-0.30829 0.959339,-1.81759 1.767521,-3.35399 z m 149.074812,0.47034 v -3.35075 l -1.86883,-0.0591 c -1.02786,-0.0325 -1.86865,-0.0306 -1.86842,0.004 6e-4,0.0947 3.63631,6.746 3.69054,6.75159 0.0257,0.003 0.0467,-1.50302 0.0467,-3.34593 z m -72.67674,-2.81907 c 2.06588,-0.24904 5.82124,-1.18141 7.4841,-1.85811 2.85783,-1.163 4.86224,-2.77401 7.08846,-5.69721 l 1.34144,-1.76142 -0.67207,-0.59009 c -0.36965,-0.32455 -0.94517,-1.149128 -1.27895,-1.832389 -0.59882,-1.225834 -0.60811,-1.285965 -0.70118,-4.538292 l -0.0943,-3.295998 -2.61579,2.421301 c -3.86713,3.579599 -5.57175,4.578249 -9.06185,5.308896 -1.98719,0.416014 -6.74304,0.469381 -8.78159,0.09854 -1.78323,-0.324394 -3.656337,-0.99665 -5.010581,-1.798291 -0.583986,-0.345688 -2.449097,-1.889614 -4.144691,-3.430945 l -3.082897,-2.80242 -0.09608,3.490878 c -0.0901,3.273334 -0.12675,3.556641 -0.588172,4.546156 -0.270649,0.580403 -0.840939,1.404134 -1.267313,1.830504 l -0.775225,0.77522 1.22656,1.47057 c 2.81158,3.37091 5.276428,5.15045 8.711654,6.28955 1.786234,0.5923 4.808185,1.29869 6.147795,1.43706 1.4481,0.14959 4.67889,0.11633 6.1707,-0.0635 z m 67.19997,-1.72427 c -0.0541,-0.12845 -0.84646,-1.62085 -1.76085,-3.31645 l -1.66252,-3.08289 -5.99966,-0.0493 -5.99965,-0.0493 0.98593,2.19797 c 0.54226,1.20888 1.22447,2.67757 1.51602,3.26375 0.52965,1.0649 0.53087,1.06584 1.47629,1.1332 0.52041,0.0371 3.33042,0.083 6.24448,0.10198 4.17701,0.0273 5.27747,-0.0149 5.19996,-0.19899 z m 5.47677,-3.01056 v -3.24411 l -3.75107,-0.13597 c -2.06308,-0.0748 -3.79221,-0.0948 -3.8425,-0.0445 -0.10844,0.10844 0.65881,1.6766 2.23436,4.56675 l 1.14588,2.10198 h 2.10666 2.10667 z m -145.363283,-0.037 c 0.873488,-1.69773 1.609004,-3.1464 1.634481,-3.21927 0.02548,-0.0729 -1.635084,-0.16306 -3.690135,-0.20045 l -3.736456,-0.068 v 3.29101 3.29101 l 2.101976,-0.004 2.101975,-0.004 z m 13.479846,-0.16318 c 0.807144,-1.74024 1.467535,-3.19177 1.467535,-3.22562 0,-0.0339 -2.70798,-0.0394 -6.017733,-0.0122 l -6.017734,0.0493 -0.57621,1.02763 c -0.316916,0.5652 -1.102226,2.01668 -1.745134,3.22552 l -1.168923,2.1979 6.295331,-0.0492 6.295332,-0.0492 z M 40.45008,100.61075 c 1.221572,-2.110133 2.649535,-4.832573 2.649535,-5.051389 0,-0.14607 -1.669708,-0.210972 -5.698689,-0.221509 l -5.698689,-0.0149 v 3.274494 3.274494 h 4.008867 4.008867 z m 142.40755,-1.915133 v -3.176319 l -4.99803,-0.01742 c -2.74892,-0.0096 -5.35537,-0.04365 -5.79211,-0.0757 -0.43675,-0.03205 -0.79408,0.02257 -0.79408,0.121388 0,0.09882 0.72121,1.517979 1.60269,3.153689 l 1.6027,2.974015 2.74139,0.057 c 1.50776,0.0314 3.393,0.0756 4.18941,0.0983 l 1.44803,0.0413 z M 53.569478,100.33049 c 0.342399,-0.745036 0.982685,-2.13234 1.422858,-3.0829 l 0.800314,-1.728292 -5.73928,0.0035 -5.73928,0.0035 -1.588159,2.910169 c -0.873488,1.600593 -1.616186,2.986323 -1.65044,3.079393 -0.03637,0.0988 2.419717,0.16921 5.904582,0.16921 h 5.966863 z m 13.080883,-1.494741 c 0.543921,-1.56714 1.025727,-2.954444 1.07068,-3.082898 0.0642,-0.183452 -1.094907,-0.232701 -5.403393,-0.229583 l -5.485126,0.004 -1.431353,3.078929 -1.431352,3.078923 h 5.845798 5.845799 z m 93.141169,1.454631 c -0.34957,-0.767091 -0.97808,-2.175415 -1.39668,-3.129607 l -0.7611,-1.734896 -5.41834,-0.06239 c -3.9473,-0.04545 -5.41834,-0.0049 -5.41834,0.149226 0,0.11639 0.43729,1.55279 0.97175,3.192 l 0.97175,2.980377 h 5.84327 5.84328 z m 13.53575,1.25458 c -7.6e-4,-0.0771 -0.39243,-0.81276 -0.87037,-1.634868 -0.47794,-0.822106 -1.23403,-2.123295 -1.68019,-2.891531 -0.44616,-0.768236 -0.81132,-1.440868 -0.81145,-1.494738 -1.3e-4,-0.05387 -2.52911,-0.112749 -5.61995,-0.130842 -5.18853,-0.03037 -5.61056,-0.0089 -5.50037,0.280264 0.0656,0.172237 0.6801,1.595364 1.36547,3.162504 l 1.24611,2.849341 h 5.93607 c 3.26484,0 5.93545,-0.0631 5.93468,-0.14013 z m -61.28287,-6.311885 c 2.95864,-0.79481 4.13591,-1.639854 8.94364,-6.419784 5.35628,-5.325315 6.66482,-7.68967 7.76677,-14.033486 l 0.40569,-2.335529 2.04525,-0.0981 c 2.34039,-0.112255 2.98676,-0.362964 3.7264,-1.445377 0.72553,-1.061764 1.1557,-2.701848 1.67577,-6.389072 0.55425,-3.929553 0.57771,-4.683153 0.17241,-5.537261 -0.38554,-0.812462 -1.43065,-1.189875 -2.29897,-0.830207 -0.667,0.27628 -0.64315,0.209136 -1.1305,3.182901 -0.45715,2.789415 -0.65232,3.33057 -1.25585,3.482046 -0.61082,0.153304 -1.94872,-0.03871 -2.11214,-0.303122 -0.15471,-0.250315 -0.1002,-1.026893 0.38403,-5.471487 0.46366,-4.255827 0.45885,-5.299348 -0.0306,-6.633824 -1.20187,-3.276891 -1.32001,-3.817076 -1.48026,-6.768365 -0.26616,-4.901986 -1.48052,-8.341932 -3.92573,-11.1206 -0.72177,-0.82019 -1.49909,-1.763889 -1.72739,-2.09711 -0.2283,-0.333221 -0.45713,-0.581333 -0.50851,-0.55136 -1.82295,1.063394 -8.9134,3.692798 -11.86448,4.39979 -1.85505,0.444415 -2.4011,0.491745 -5.60527,0.485844 -4.77657,-0.0088 -6.364105,-0.36381 -11.668385,-2.609356 -0.991942,-0.419934 -1.391608,-0.493321 -2.258521,-0.414712 -0.579318,0.05253 -1.298156,0.222788 -1.597418,0.378351 -1.430551,0.743628 -2.608497,2.564287 -3.411375,5.272698 -0.462516,1.560241 -0.696051,3.102878 -0.957728,6.326367 -0.160744,1.980137 -0.327132,2.798476 -0.941063,4.628378 -0.912213,2.718973 -0.936803,3.563583 -0.282068,9.688566 l 0.449385,4.203951 -0.383833,0.326974 c -0.472367,0.402392 -1.61259,0.42604 -2.156979,0.04474 -0.407768,-0.285612 -0.82171,-1.786793 -1.08139,-3.921712 -0.185748,-1.527098 -0.447793,-2.129041 -1.066014,-2.448735 -0.761803,-0.393943 -1.62987,-0.209723 -2.298029,0.487685 -0.472123,0.49279 -0.529879,0.681586 -0.503319,1.645288 0.0165,0.598741 0.201056,2.25261 0.410121,3.675264 0.645411,4.391924 1.106227,5.931705 2.141928,7.157087 0.841595,0.995727 1.378081,1.177745 3.299269,1.119373 1.36121,-0.04136 1.732464,0.0045 1.850168,0.228523 0.08099,0.154145 0.291432,1.121053 0.467653,2.148686 0.620461,3.618204 1.96492,7.061922 3.713946,9.512964 0.821817,1.151673 4.885037,5.209718 8.125242,8.114894 1.945431,1.744278 3.5881,2.634231 5.71946,3.098646 1.81541,0.395571 7.51968,0.284669 9.24869,-0.179813 z M 43.379879,89.073717 v -5.511524 l -5.838821,-4e-4 -5.838821,-4.01e-4 v 5.511848 5.511847 l 5.838821,7.7e-5 5.838821,7.7e-5 z m 12.42501,-4.77e-4 v -5.511848 h -5.749092 -5.749092 l 0.0037,5.511207 0.0037,5.511206 5.7454,6.41e-4 5.745399,6.41e-4 z m 12.366143,3.129608 c 0.01901,-1.310232 0.02568,-2.970792 0.01483,-3.690135 -0.01085,-0.719343 -0.0264,-2.127667 -0.03455,-3.129608 l -0.01483,-1.821713 H 62.437789 56.7391 v 5.511848 5.511847 h 5.698689 5.698689 z m 89.418998,-3.176319 0.0495,-5.465137 h -5.70151 -5.70152 v 5.387286 c 0,2.963007 0.0526,5.439839 0.11679,5.50407 0.0642,0.06423 2.60762,0.09926 5.65198,0.07785 l 5.53519,-0.03893 z m 12.93601,0.04671 v -5.511848 h -6.08321 -6.0832 l 0.0881,5.465137 c 0.0485,3.005825 0.0954,5.486157 0.10426,5.511847 0.009,0.02569 2.70669,0.04671 5.99512,0.04671 h 5.97895 z m 12.33159,0 v -5.511848 h -5.69869 -5.69869 v 5.511848 5.511847 h 5.69869 5.69869 z m -139.529674,-12.23807 -0.05192,-5.79221 h -5.786898 -5.786899 v 5.792111 5.792111 l 5.838821,9.9e-5 5.838821,9.9e-5 z m 12.476933,-9.9e-5 v -5.792111 h -5.81244 -5.81244 l 0.06704,5.792029 0.06704,5.79203 5.7454,8.1e-5 5.745399,8.2e-5 z m 114.715621,0 -0.0106,-5.792111 h -6.06429 -6.06429 v 5.792111 5.792111 h 6.07493 6.07492 z m 12.33712,0 v -5.792111 h -5.69869 -5.69869 v 5.792111 5.792111 h 5.69869 5.69869 z M 39.952,70.108748 h 3.334458 v -5.325005 -5.325005 h -5.792111 -5.79211 V 64.773 70.087262 l 0.79408,0.08375 c 0.436744,0.04606 1.542688,0.0509 2.457653,0.01074 0.914965,-0.04016 3.164079,-0.07301 4.99803,-0.07301 z M 55.804889,64.783743 V 59.458738 H 50.1062 44.407511 v 5.325005 5.325005 h 5.698689 5.698689 z m 114.698661,0.09414 -0.0709,-5.230865 -6.02567,-7.19e-4 -6.02566,-7.19e-4 v 5.231584 5.231584 h 6.0966 6.09659 z m 12.35408,-7.19e-4 V 59.64558 h -5.69869 -5.69869 v 5.231584 5.231584 h 5.69869 5.69869 z"
       id="path1" /></g></svg>
